<?xml version="1.0" encoding="UTF-8" standalone="no"?>
<!DOCTYPE svg PUBLIC "-//W3C//DTD SVG 1.1//EN"
 "http://www.w3.org/Graphics/SVG/1.1/DTD/svg11.dtd">
<!-- Generated by graphviz version 2.38.0 (20140413.2041)
 -->
<!-- Title: %3 Pages: 1 -->
<svg width="513pt" height="265pt"
 viewBox="0.00 0.00 513.14 265.00" xmlns="http://www.w3.org/2000/svg" xmlns:xlink="http://www.w3.org/1999/xlink">
<g id="graph0" class="graph" transform="scale(1 1) rotate(0) translate(4 261)">
<title>%3</title>
<polygon fill="white" stroke="none" points="-4,4 -4,-261 509.142,-261 509.142,4 -4,4"/>
<g id="clust1" class="cluster"><title>cluster2</title>
<path fill="none" stroke="black" d="M20,-174C20,-174 116,-174 116,-174 122,-174 128,-180 128,-186 128,-186 128,-237 128,-237 128,-243 122,-249 116,-249 116,-249 20,-249 20,-249 14,-249 8,-243 8,-237 8,-237 8,-186 8,-186 8,-180 14,-174 20,-174"/>
<text text-anchor="middle" x="116.5" y="-181.8" font-family="Times,serif" font-size="14.00">2</text>
</g>
<g id="clust2" class="cluster"><title>cluster85</title>
<path fill="none" stroke="black" d="M41,-91C41,-91 191,-91 191,-91 197,-91 203,-97 203,-103 203,-103 203,-154 203,-154 203,-160 197,-166 191,-166 191,-166 41,-166 41,-166 35,-166 29,-160 29,-154 29,-154 29,-103 29,-103 29,-97 35,-91 41,-91"/>
<text text-anchor="middle" x="188" y="-98.8" font-family="Times,serif" font-size="14.00">85</text>
</g>
<g id="clust3" class="cluster"><title>cluster919</title>
<path fill="none" stroke="black" d="M217,-8C217,-8 313,-8 313,-8 319,-8 325,-14 325,-20 325,-20 325,-71 325,-71 325,-77 319,-83 313,-83 313,-83 217,-83 217,-83 211,-83 205,-77 205,-71 205,-71 205,-20 205,-20 205,-14 211,-8 217,-8"/>
<text text-anchor="middle" x="306.5" y="-15.8" font-family="Times,serif" font-size="14.00">919</text>
</g>
<!-- g -->
<g id="node1" class="node"><title>g</title>
<ellipse fill="none" stroke="black" cx="68" cy="-223" rx="51.9908" ry="18"/>
<text text-anchor="middle" x="68" y="-219.3" font-family="Times,serif" font-size="14.00">g ~ Normal</text>
</g>
<!-- a_mouse -->
<g id="node5" class="node"><title>a_mouse</title>
<ellipse fill="none" stroke="black" cx="116" cy="-140" rx="79.0865" ry="18"/>
<text text-anchor="middle" x="116" y="-136.3" font-family="Times,serif" font-size="14.00">a_mouse ~ Normal</text>
</g>
<!-- g&#45;&gt;a_mouse -->
<g id="edge2" class="edge"><title>g&#45;&gt;a_mouse</title>
<path fill="none" stroke="black" d="M77.9456,-205.217C84.5304,-194.105 93.2946,-179.315 100.752,-166.73"/>
<polygon fill="black" stroke="black" points="103.815,-168.428 105.902,-158.04 97.7929,-164.859 103.815,-168.428"/>
</g>
<!-- sigma_a -->
<g id="node2" class="node"><title>sigma_a</title>
<ellipse fill="none" stroke="black" cx="231" cy="-223" rx="92.8835" ry="18"/>
<text text-anchor="middle" x="231" y="-219.3" font-family="Times,serif" font-size="14.00">sigma_a ~ Exponential</text>
</g>
<!-- sigma_a&#45;&gt;a_mouse -->
<g id="edge1" class="edge"><title>sigma_a&#45;&gt;a_mouse</title>
<path fill="none" stroke="black" d="M207.451,-205.413C190.127,-193.211 166.398,-176.498 147.453,-163.154"/>
<polygon fill="black" stroke="black" points="149.316,-160.185 139.125,-157.288 145.285,-165.908 149.316,-160.185"/>
</g>
<!-- b -->
<g id="node3" class="node"><title>b</title>
<ellipse fill="none" stroke="black" cx="265" cy="-140" rx="51.9908" ry="18"/>
<text text-anchor="middle" x="265" y="-136.3" font-family="Times,serif" font-size="14.00">b ~ Normal</text>
</g>
<!-- y -->
<g id="node6" class="node"><title>y</title>
<ellipse fill="lightgrey" stroke="black" cx="265" cy="-57" rx="51.9908" ry="18"/>
<text text-anchor="middle" x="265" y="-53.3" font-family="Times,serif" font-size="14.00">y ~ Normal</text>
</g>
<!-- b&#45;&gt;y -->
<g id="edge4" class="edge"><title>b&#45;&gt;y</title>
<path fill="none" stroke="black" d="M265,-121.822C265,-111.19 265,-97.306 265,-85.2035"/>
<polygon fill="black" stroke="black" points="268.5,-85.1532 265,-75.1533 261.5,-85.1533 268.5,-85.1532"/>
</g>
<!-- sigma -->
<g id="node4" class="node"><title>sigma</title>
<ellipse fill="none" stroke="black" cx="420" cy="-140" rx="85.2851" ry="18"/>
<text text-anchor="middle" x="420" y="-136.3" font-family="Times,serif" font-size="14.00">sigma ~ Exponential</text>
</g>
<!-- sigma&#45;&gt;y -->
<g id="edge5" class="edge"><title>sigma&#45;&gt;y</title>
<path fill="none" stroke="black" d="M389.377,-122.997C364.122,-109.799 328.23,-91.0426 301.488,-77.0679"/>
<polygon fill="black" stroke="black" points="302.927,-73.8708 292.443,-72.3413 299.685,-80.0748 302.927,-73.8708"/>
</g>
<!-- a_mouse&#45;&gt;y -->
<g id="edge3" class="edge"><title>a_mouse&#45;&gt;y</title>
<path fill="none" stroke="black" d="M144.92,-123.193C162.082,-113.82 184.273,-101.716 204,-91 212.072,-86.6153 220.75,-81.9134 228.956,-77.4726"/>
<polygon fill="black" stroke="black" points="230.833,-80.4368 237.963,-72.6006 227.502,-74.2797 230.833,-80.4368"/>
</g>
</g>
</svg>
