<?xml version="1.0" encoding="UTF-8" standalone="no"?>
<!DOCTYPE svg PUBLIC "-//W3C//DTD SVG 1.1//EN"
 "http://www.w3.org/Graphics/SVG/1.1/DTD/svg11.dtd">
<!-- Generated by graphviz version 2.40.1 (20161225.0304)
 -->
<!-- Title: %3 Pages: 1 -->
<svg width="1048pt" height="265pt"
 viewBox="0.00 0.00 1047.89 265.00" xmlns="http://www.w3.org/2000/svg" xmlns:xlink="http://www.w3.org/1999/xlink">
<g id="graph0" class="graph" transform="scale(1 1) rotate(0) translate(4 261)">
<title>%3</title>
<polygon fill="#ffffff" stroke="transparent" points="-4,4 -4,-261 1043.8904,-261 1043.8904,4 -4,4"/>
<g id="clust1" class="cluster">
<title>cluster3</title>
<path fill="none" stroke="#000000" d="M20,-174C20,-174 334,-174 334,-174 340,-174 346,-180 346,-186 346,-186 346,-237 346,-237 346,-243 340,-249 334,-249 334,-249 20,-249 20,-249 14,-249 8,-243 8,-237 8,-237 8,-186 8,-186 8,-180 14,-174 20,-174"/>
<text text-anchor="middle" x="333" y="-181.8" font-family="Times,serif" font-size="14.00" fill="#000000">3</text>
</g>
<g id="clust2" class="cluster">
<title>cluster2</title>
<path fill="none" stroke="#000000" d="M26,-91C26,-91 220,-91 220,-91 226,-91 232,-97 232,-103 232,-103 232,-154 232,-154 232,-160 226,-166 220,-166 220,-166 26,-166 26,-166 20,-166 14,-160 14,-154 14,-154 14,-103 14,-103 14,-97 20,-91 26,-91"/>
<text text-anchor="middle" x="219" y="-98.8" font-family="Times,serif" font-size="14.00" fill="#000000">2</text>
</g>
<g id="clust3" class="cluster">
<title>cluster2 x 85</title>
<path fill="none" stroke="#000000" d="M366,-174C366,-174 486,-174 486,-174 492,-174 498,-180 498,-186 498,-186 498,-237 498,-237 498,-243 492,-249 486,-249 486,-249 366,-249 366,-249 360,-249 354,-243 354,-237 354,-237 354,-186 354,-186 354,-180 360,-174 366,-174"/>
<text text-anchor="middle" x="467.5" y="-181.8" font-family="Times,serif" font-size="14.00" fill="#000000">2 x 85</text>
</g>
<g id="clust4" class="cluster">
<title>cluster85 x 2</title>
<path fill="none" stroke="#000000" d="M305,-91C305,-91 505,-91 505,-91 511,-91 517,-97 517,-103 517,-103 517,-154 517,-154 517,-160 511,-166 505,-166 505,-166 305,-166 305,-166 299,-166 293,-160 293,-154 293,-154 293,-103 293,-103 293,-97 299,-91 305,-91"/>
<text text-anchor="middle" x="486.5" y="-98.8" font-family="Times,serif" font-size="14.00" fill="#000000">85 x 2</text>
</g>
<g id="clust5" class="cluster">
<title>cluster919</title>
<path fill="none" stroke="#000000" d="M605,-8C605,-8 727,-8 727,-8 733,-8 739,-14 739,-20 739,-20 739,-71 739,-71 739,-77 733,-83 727,-83 727,-83 605,-83 605,-83 599,-83 593,-77 593,-71 593,-71 593,-20 593,-20 593,-14 599,-8 605,-8"/>
<text text-anchor="middle" x="717" y="-15.8" font-family="Times,serif" font-size="14.00" fill="#000000">919</text>
</g>
<!-- packed_chol -->
<g id="node1" class="node">
<title>packed_chol</title>
<ellipse fill="none" stroke="#000000" cx="177" cy="-223" rx="160.5715" ry="18"/>
<text text-anchor="middle" x="177" y="-219.3" font-family="Times,serif" font-size="14.00" fill="#000000">packed_chol ~ LKJCholeskyCov</text>
</g>
<!-- sigma_ab -->
<g id="node2" class="node">
<title>sigma_ab</title>
<polygon fill="none" stroke="#000000" points="224.5,-158 21.5,-158 21.5,-122 224.5,-122 224.5,-158"/>
<text text-anchor="middle" x="123" y="-136.3" font-family="Times,serif" font-size="14.00" fill="#000000">sigma_ab ~ Deterministic</text>
</g>
<!-- packed_chol&#45;&gt;sigma_ab -->
<g id="edge1" class="edge">
<title>packed_chol&#45;&gt;sigma_ab</title>
<path fill="none" stroke="#000000" d="M165.2828,-204.9902C158.0442,-193.8642 148.6204,-179.3794 140.507,-166.9089"/>
<polygon fill="#000000" stroke="#000000" points="143.268,-164.7347 134.8808,-158.2612 137.4005,-168.5521 143.268,-164.7347"/>
</g>
<!-- Rho -->
<g id="node4" class="node">
<title>Rho</title>
<polygon fill="none" stroke="#000000" points="270,-75 106,-75 106,-39 270,-39 270,-75"/>
<text text-anchor="middle" x="188" y="-53.3" font-family="Times,serif" font-size="14.00" fill="#000000">Rho ~ Deterministic</text>
</g>
<!-- packed_chol&#45;&gt;Rho -->
<g id="edge2" class="edge">
<title>packed_chol&#45;&gt;Rho</title>
<path fill="none" stroke="#000000" d="M203.6093,-205.1524C215.9426,-195.2407 229.3237,-181.733 236,-166 249.0211,-135.3151 251.3113,-120.6087 236,-91 234.4051,-87.9159 232.3872,-85.0512 230.0868,-82.4021"/>
<polygon fill="#000000" stroke="#000000" points="232.116,-79.4984 222.4783,-75.0978 227.2682,-84.5481 232.116,-79.4984"/>
</g>
<!-- ab_mouse -->
<g id="node8" class="node">
<title>ab_mouse</title>
<polygon fill="none" stroke="#000000" points="508.5,-158 301.5,-158 301.5,-122 508.5,-122 508.5,-158"/>
<text text-anchor="middle" x="405" y="-136.3" font-family="Times,serif" font-size="14.00" fill="#000000">ab_mouse ~ Deterministic</text>
</g>
<!-- packed_chol&#45;&gt;ab_mouse -->
<g id="edge4" class="edge">
<title>packed_chol&#45;&gt;ab_mouse</title>
<path fill="none" stroke="#000000" d="M224.5187,-205.7015C259.6209,-192.9231 307.6494,-175.4391 345.3363,-161.7197"/>
<polygon fill="#000000" stroke="#000000" points="346.9758,-164.8476 355.1752,-158.138 344.5812,-158.2699 346.9758,-164.8476"/>
</g>
<!-- sigma_ab&#45;&gt;Rho -->
<g id="edge3" class="edge">
<title>sigma_ab&#45;&gt;Rho</title>
<path fill="none" stroke="#000000" d="M137.104,-121.9902C145.9864,-110.6482 157.6022,-95.8157 167.4938,-83.1848"/>
<polygon fill="#000000" stroke="#000000" points="170.2889,-85.2923 173.699,-75.2612 164.7778,-80.9763 170.2889,-85.2923"/>
</g>
<!-- b -->
<g id="node3" class="node">
<title>b</title>
<ellipse fill="none" stroke="#000000" cx="592" cy="-140" rx="65.7887" ry="18"/>
<text text-anchor="middle" x="592" y="-136.3" font-family="Times,serif" font-size="14.00" fill="#000000">b ~ Normal</text>
</g>
<!-- y -->
<g id="node9" class="node">
<title>y</title>
<ellipse fill="#d3d3d3" stroke="#000000" cx="666" cy="-57" rx="64.9885" ry="18"/>
<text text-anchor="middle" x="666" y="-53.3" font-family="Times,serif" font-size="14.00" fill="#000000">y ~ Normal</text>
</g>
<!-- b&#45;&gt;y -->
<g id="edge6" class="edge">
<title>b&#45;&gt;y</title>
<path fill="none" stroke="#000000" d="M607.6935,-122.3978C618.0931,-110.7334 631.8994,-95.248 643.4667,-82.2739"/>
<polygon fill="#000000" stroke="#000000" points="646.2868,-84.3702 650.3291,-74.5768 641.0618,-79.7118 646.2868,-84.3702"/>
</g>
<!-- a -->
<g id="node5" class="node">
<title>a</title>
<ellipse fill="none" stroke="#000000" cx="741" cy="-140" rx="64.9885" ry="18"/>
<text text-anchor="middle" x="741" y="-136.3" font-family="Times,serif" font-size="14.00" fill="#000000">a ~ Normal</text>
</g>
<!-- a&#45;&gt;y -->
<g id="edge8" class="edge">
<title>a&#45;&gt;y</title>
<path fill="none" stroke="#000000" d="M725.0944,-122.3978C714.5543,-110.7334 700.5614,-95.248 688.8378,-82.2739"/>
<polygon fill="#000000" stroke="#000000" points="691.184,-79.6498 681.8826,-74.5768 685.9903,-84.343 691.184,-79.6498"/>
</g>
<!-- sigma -->
<g id="node6" class="node">
<title>sigma</title>
<ellipse fill="none" stroke="#000000" cx="932" cy="-140" rx="107.781" ry="18"/>
<text text-anchor="middle" x="932" y="-136.3" font-family="Times,serif" font-size="14.00" fill="#000000">sigma ~ Exponential</text>
</g>
<!-- sigma&#45;&gt;y -->
<g id="edge9" class="edge">
<title>sigma&#45;&gt;y</title>
<path fill="none" stroke="#000000" d="M895.9822,-123.0156C873.15,-112.7277 842.7839,-99.9146 815,-91 787.6691,-82.2307 756.8299,-74.8014 730.3279,-69.1455"/>
<polygon fill="#000000" stroke="#000000" points="730.9047,-65.6905 720.3995,-67.0656 729.4694,-72.5417 730.9047,-65.6905"/>
</g>
<!-- z -->
<g id="node7" class="node">
<title>z</title>
<ellipse fill="none" stroke="#000000" cx="426" cy="-223" rx="64.189" ry="18"/>
<text text-anchor="middle" x="426" y="-219.3" font-family="Times,serif" font-size="14.00" fill="#000000">z ~ Normal</text>
</g>
<!-- z&#45;&gt;ab_mouse -->
<g id="edge5" class="edge">
<title>z&#45;&gt;ab_mouse</title>
<path fill="none" stroke="#000000" d="M421.4433,-204.9902C418.7103,-194.1883 415.1762,-180.2204 412.0852,-168.0036"/>
<polygon fill="#000000" stroke="#000000" points="415.4663,-167.0972 409.6203,-158.2612 408.6801,-168.8143 415.4663,-167.0972"/>
</g>
<!-- ab_mouse&#45;&gt;y -->
<g id="edge7" class="edge">
<title>ab_mouse&#45;&gt;y</title>
<path fill="none" stroke="#000000" d="M441.3968,-121.9965C462.9799,-111.8496 491.0979,-99.5371 517,-91 544.2608,-82.0151 575.0891,-74.5524 601.6019,-68.9298"/>
<polygon fill="#000000" stroke="#000000" points="602.4567,-72.3271 611.5355,-66.8657 601.0325,-65.4735 602.4567,-72.3271"/>
</g>
</g>
</svg>
