<?xml version="1.0" encoding="UTF-8" standalone="no"?>
<!DOCTYPE svg PUBLIC "-//W3C//DTD SVG 1.1//EN"
 "http://www.w3.org/Graphics/SVG/1.1/DTD/svg11.dtd">
<!-- Generated by graphviz version 2.38.0 (20140413.2041)
 -->
<!-- Title: %3 Pages: 1 -->
<svg width="316pt" height="182pt"
 viewBox="0.00 0.00 316.14 182.00" xmlns="http://www.w3.org/2000/svg" xmlns:xlink="http://www.w3.org/1999/xlink">
<g id="graph0" class="graph" transform="scale(1 1) rotate(0) translate(4 178)">
<title>%3</title>
<polygon fill="white" stroke="none" points="-4,4 -4,-178 312.142,-178 312.142,4 -4,4"/>
<g id="clust1" class="cluster"><title>cluster85 x 2</title>
<path fill="none" stroke="black" d="M20,-91C20,-91 116,-91 116,-91 122,-91 128,-97 128,-103 128,-103 128,-154 128,-154 128,-160 122,-166 116,-166 116,-166 20,-166 20,-166 14,-166 8,-160 8,-154 8,-154 8,-103 8,-103 8,-97 14,-91 20,-91"/>
<text text-anchor="middle" x="103" y="-98.8" font-family="Times,serif" font-size="14.00">85 x 2</text>
</g>
<g id="clust2" class="cluster"><title>cluster919</title>
<path fill="none" stroke="black" d="M59,-8C59,-8 155,-8 155,-8 161,-8 167,-14 167,-20 167,-20 167,-71 167,-71 167,-77 161,-83 155,-83 155,-83 59,-83 59,-83 53,-83 47,-77 47,-71 47,-71 47,-20 47,-20 47,-14 53,-8 59,-8"/>
<text text-anchor="middle" x="148.5" y="-15.8" font-family="Times,serif" font-size="14.00">919</text>
</g>
<!-- a -->
<g id="node1" class="node"><title>a</title>
<ellipse fill="none" stroke="black" cx="68" cy="-140" rx="51.9908" ry="18"/>
<text text-anchor="middle" x="68" y="-136.3" font-family="Times,serif" font-size="14.00">a ~ Normal</text>
</g>
<!-- y -->
<g id="node3" class="node"><title>y</title>
<ellipse fill="lightgrey" stroke="black" cx="107" cy="-57" rx="51.9908" ry="18"/>
<text text-anchor="middle" x="107" y="-53.3" font-family="Times,serif" font-size="14.00">y ~ Normal</text>
</g>
<!-- a&#45;&gt;y -->
<g id="edge1" class="edge"><title>a&#45;&gt;y</title>
<path fill="none" stroke="black" d="M76.0808,-122.217C81.379,-111.213 88.4138,-96.6021 94.4345,-84.0976"/>
<polygon fill="black" stroke="black" points="97.6106,-85.5688 98.7953,-75.0404 91.3036,-82.5321 97.6106,-85.5688"/>
</g>
<!-- sigma -->
<g id="node2" class="node"><title>sigma</title>
<ellipse fill="none" stroke="black" cx="223" cy="-140" rx="85.2851" ry="18"/>
<text text-anchor="middle" x="223" y="-136.3" font-family="Times,serif" font-size="14.00">sigma ~ Exponential</text>
</g>
<!-- sigma&#45;&gt;y -->
<g id="edge2" class="edge"><title>sigma&#45;&gt;y</title>
<path fill="none" stroke="black" d="M199.526,-122.608C181.648,-110.125 156.891,-92.8376 137.483,-79.2858"/>
<polygon fill="black" stroke="black" points="139.461,-76.3983 129.259,-73.5427 135.454,-82.1375 139.461,-76.3983"/>
</g>
</g>
</svg>
