<?xml version="1.0" encoding="UTF-8" standalone="no"?>
<!DOCTYPE svg PUBLIC "-//W3C//DTD SVG 1.1//EN"
 "http://www.w3.org/Graphics/SVG/1.1/DTD/svg11.dtd">
<!-- Generated by graphviz version 2.38.0 (20140413.2041)
 -->
<!-- Title: %3 Pages: 1 -->
<svg width="660pt" height="265pt"
 viewBox="0.00 0.00 660.14 265.00" xmlns="http://www.w3.org/2000/svg" xmlns:xlink="http://www.w3.org/1999/xlink">
<g id="graph0" class="graph" transform="scale(1 1) rotate(0) translate(4 261)">
<title>%3</title>
<polygon fill="white" stroke="none" points="-4,4 -4,-261 656.142,-261 656.142,4 -4,4"/>
<g id="clust1" class="cluster"><title>cluster3</title>
<path fill="none" stroke="black" d="M46,-174C46,-174 294,-174 294,-174 300,-174 306,-180 306,-186 306,-186 306,-237 306,-237 306,-243 300,-249 294,-249 294,-249 46,-249 46,-249 40,-249 34,-243 34,-237 34,-237 34,-186 34,-186 34,-180 40,-174 46,-174"/>
<text text-anchor="middle" x="294.5" y="-181.8" font-family="Times,serif" font-size="14.00">3</text>
</g>
<g id="clust2" class="cluster"><title>cluster2</title>
<path fill="none" stroke="black" d="M20,-91C20,-91 172,-91 172,-91 178,-91 184,-97 184,-103 184,-103 184,-154 184,-154 184,-160 178,-166 172,-166 172,-166 20,-166 20,-166 14,-166 8,-160 8,-154 8,-154 8,-103 8,-103 8,-97 14,-91 20,-91"/>
<text text-anchor="middle" x="172.5" y="-98.8" font-family="Times,serif" font-size="14.00">2</text>
</g>
<g id="clust3" class="cluster"><title>cluster85 x 2</title>
<path fill="none" stroke="black" d="M276,-91C276,-91 460,-91 460,-91 466,-91 472,-97 472,-103 472,-103 472,-154 472,-154 472,-160 466,-166 460,-166 460,-166 276,-166 276,-166 270,-166 264,-160 264,-154 264,-154 264,-103 264,-103 264,-97 270,-91 276,-91"/>
<text text-anchor="middle" x="447" y="-98.8" font-family="Times,serif" font-size="14.00">85 x 2</text>
</g>
<g id="clust4" class="cluster"><title>cluster919</title>
<path fill="none" stroke="black" d="M342,-8C342,-8 438,-8 438,-8 444,-8 450,-14 450,-20 450,-20 450,-71 450,-71 450,-77 444,-83 438,-83 438,-83 342,-83 342,-83 336,-83 330,-77 330,-71 330,-71 330,-20 330,-20 330,-14 336,-8 342,-8"/>
<text text-anchor="middle" x="431.5" y="-15.8" font-family="Times,serif" font-size="14.00">919</text>
</g>
<!-- packed_chol -->
<g id="node1" class="node"><title>packed_chol</title>
<ellipse fill="none" stroke="black" cx="170" cy="-223" rx="128.077" ry="18"/>
<text text-anchor="middle" x="170" y="-219.3" font-family="Times,serif" font-size="14.00">packed_chol ~ LKJCholeskyCov</text>
</g>
<!-- sigma_ab -->
<g id="node2" class="node"><title>sigma_ab</title>
<polygon fill="none" stroke="black" points="176,-158 16,-158 16,-122 176,-122 176,-158"/>
<text text-anchor="middle" x="96" y="-136.3" font-family="Times,serif" font-size="14.00">sigma_ab ~ Deterministic</text>
</g>
<!-- packed_chol&#45;&gt;sigma_ab -->
<g id="edge1" class="edge"><title>packed_chol&#45;&gt;sigma_ab</title>
<path fill="none" stroke="black" d="M154.307,-204.822C143.907,-193.439 130.101,-178.326 118.533,-165.665"/>
<polygon fill="black" stroke="black" points="121,-163.175 111.671,-158.153 115.832,-167.897 121,-163.175"/>
</g>
<!-- Rho -->
<g id="node5" class="node"><title>Rho</title>
<polygon fill="none" stroke="black" points="215.5,-75 84.5,-75 84.5,-39 215.5,-39 215.5,-75"/>
<text text-anchor="middle" x="150" y="-53.3" font-family="Times,serif" font-size="14.00">Rho ~ Deterministic</text>
</g>
<!-- packed_chol&#45;&gt;Rho -->
<g id="edge3" class="edge"><title>packed_chol&#45;&gt;Rho</title>
<path fill="none" stroke="black" d="M177.988,-205.019C188.924,-179.189 205.336,-129.015 188,-91 186.622,-87.979 184.816,-85.1277 182.74,-82.4624"/>
<polygon fill="black" stroke="black" points="185.221,-79.9913 175.855,-75.0403 180.09,-84.752 185.221,-79.9913"/>
</g>
<!-- ab_mouse -->
<g id="node7" class="node"><title>ab_mouse</title>
<ellipse fill="none" stroke="black" cx="368" cy="-140" rx="96.3833" ry="18"/>
<text text-anchor="middle" x="368" y="-136.3" font-family="Times,serif" font-size="14.00">ab_mouse ~ MvNormal</text>
</g>
<!-- packed_chol&#45;&gt;ab_mouse -->
<g id="edge6" class="edge"><title>packed_chol&#45;&gt;ab_mouse</title>
<path fill="none" stroke="black" d="M209.592,-205.803C241.434,-192.777 286.287,-174.428 320.141,-160.579"/>
<polygon fill="black" stroke="black" points="321.892,-163.644 329.822,-156.618 319.241,-157.165 321.892,-163.644"/>
</g>
<!-- sigma_ab&#45;&gt;Rho -->
<g id="edge2" class="edge"><title>sigma_ab&#45;&gt;Rho</title>
<path fill="none" stroke="black" d="M107.452,-121.822C114.826,-110.761 124.547,-96.1788 132.836,-83.7456"/>
<polygon fill="black" stroke="black" points="135.93,-85.4152 138.564,-75.1533 130.105,-81.5323 135.93,-85.4152"/>
</g>
<!-- a -->
<g id="node3" class="node"><title>a</title>
<ellipse fill="none" stroke="black" cx="368" cy="-223" rx="51.9908" ry="18"/>
<text text-anchor="middle" x="368" y="-219.3" font-family="Times,serif" font-size="14.00">a ~ Normal</text>
</g>
<!-- a&#45;&gt;ab_mouse -->
<g id="edge4" class="edge"><title>a&#45;&gt;ab_mouse</title>
<path fill="none" stroke="black" d="M368,-204.822C368,-194.19 368,-180.306 368,-168.204"/>
<polygon fill="black" stroke="black" points="371.5,-168.153 368,-158.153 364.5,-168.153 371.5,-168.153"/>
</g>
<!-- b -->
<g id="node4" class="node"><title>b</title>
<ellipse fill="none" stroke="black" cx="490" cy="-223" rx="51.9908" ry="18"/>
<text text-anchor="middle" x="490" y="-219.3" font-family="Times,serif" font-size="14.00">b ~ Normal</text>
</g>
<!-- b&#45;&gt;ab_mouse -->
<g id="edge5" class="edge"><title>b&#45;&gt;ab_mouse</title>
<path fill="none" stroke="black" d="M471.393,-206C459.62,-196.224 443.866,-183.768 429,-174 422.774,-169.909 415.993,-165.868 409.291,-162.091"/>
<polygon fill="black" stroke="black" points="410.708,-158.876 400.259,-157.126 407.336,-165.011 410.708,-158.876"/>
</g>
<!-- sigma -->
<g id="node6" class="node"><title>sigma</title>
<ellipse fill="none" stroke="black" cx="567" cy="-140" rx="85.2851" ry="18"/>
<text text-anchor="middle" x="567" y="-136.3" font-family="Times,serif" font-size="14.00">sigma ~ Exponential</text>
</g>
<!-- y -->
<g id="node8" class="node"><title>y</title>
<ellipse fill="lightgrey" stroke="black" cx="390" cy="-57" rx="51.9908" ry="18"/>
<text text-anchor="middle" x="390" y="-53.3" font-family="Times,serif" font-size="14.00">y ~ Normal</text>
</g>
<!-- sigma&#45;&gt;y -->
<g id="edge8" class="edge"><title>sigma&#45;&gt;y</title>
<path fill="none" stroke="black" d="M538.745,-122.981C520.994,-113.198 497.471,-100.741 476,-91 462.757,-84.9925 448.072,-79.0892 434.64,-73.9741"/>
<polygon fill="black" stroke="black" points="435.711,-70.6379 425.119,-70.3986 433.25,-77.191 435.711,-70.6379"/>
</g>
<!-- ab_mouse&#45;&gt;y -->
<g id="edge7" class="edge"><title>ab_mouse&#45;&gt;y</title>
<path fill="none" stroke="black" d="M372.666,-121.822C375.582,-111.083 379.401,-97.0252 382.711,-84.8374"/>
<polygon fill="black" stroke="black" points="386.098,-85.721 385.341,-75.1533 379.342,-83.8862 386.098,-85.721"/>
</g>
</g>
</svg>
