<?xml version="1.0" encoding="UTF-8" standalone="no"?>
<!DOCTYPE svg PUBLIC "-//W3C//DTD SVG 1.1//EN"
 "http://www.w3.org/Graphics/SVG/1.1/DTD/svg11.dtd">
<!-- Generated by graphviz version 2.42.3 (20191010.1750)
 -->
<!-- Title: %3 Pages: 1 -->
<svg width="469pt" height="482pt"
 viewBox="0.00 0.00 468.72 481.84" xmlns="http://www.w3.org/2000/svg" xmlns:xlink="http://www.w3.org/1999/xlink">
<g id="graph0" class="graph" transform="scale(1 1) rotate(0) translate(4 477.84)">
<title>%3</title>
<polygon fill="white" stroke="transparent" points="-4,4 -4,-477.84 464.72,-477.84 464.72,4 -4,4"/>
<g id="clust1" class="cluster">
<title>cluster2</title>
<path fill="none" stroke="black" d="M142,-351.88C142,-351.88 218,-351.88 218,-351.88 224,-351.88 230,-357.88 230,-363.88 230,-363.88 230,-453.84 230,-453.84 230,-459.84 224,-465.84 218,-465.84 218,-465.84 142,-465.84 142,-465.84 136,-465.84 130,-459.84 130,-453.84 130,-453.84 130,-363.88 130,-363.88 130,-357.88 136,-351.88 142,-351.88"/>
<text text-anchor="middle" x="218.5" y="-359.68" font-family="Times,serif" font-size="14.00">2</text>
</g>
<g id="clust2" class="cluster">
<title>cluster85</title>
<path fill="none" stroke="black" d="M20,-129.95C20,-129.95 222,-129.95 222,-129.95 228,-129.95 234,-135.95 234,-141.95 234,-141.95 234,-331.88 234,-331.88 234,-337.88 228,-343.88 222,-343.88 222,-343.88 20,-343.88 20,-343.88 14,-343.88 8,-337.88 8,-331.88 8,-331.88 8,-141.95 8,-141.95 8,-135.95 14,-129.95 20,-129.95"/>
<text text-anchor="middle" x="219" y="-137.75" font-family="Times,serif" font-size="14.00">85</text>
</g>
<g id="clust3" class="cluster">
<title>cluster919</title>
<path fill="none" stroke="black" d="M263,-8C263,-8 339,-8 339,-8 345,-8 351,-14 351,-20 351,-20 351,-109.95 351,-109.95 351,-115.95 345,-121.95 339,-121.95 339,-121.95 263,-121.95 263,-121.95 257,-121.95 251,-115.95 251,-109.95 251,-109.95 251,-20 251,-20 251,-14 257,-8 263,-8"/>
<text text-anchor="middle" x="332.5" y="-15.8" font-family="Times,serif" font-size="14.00">919</text>
</g>
<!-- g -->
<g id="node1" class="node">
<title>g</title>
<ellipse fill="none" stroke="black" cx="180" cy="-420.36" rx="41.94" ry="37.45"/>
<text text-anchor="middle" x="180" y="-431.66" font-family="Times,serif" font-size="14.00">g</text>
<text text-anchor="middle" x="180" y="-416.66" font-family="Times,serif" font-size="14.00">~</text>
<text text-anchor="middle" x="180" y="-401.66" font-family="Times,serif" font-size="14.00">Normal</text>
</g>
<!-- a -->
<g id="node5" class="node">
<title>a</title>
<polygon fill="none" stroke="black" points="225.5,-324.91 134.5,-324.91 134.5,-271.91 225.5,-271.91 225.5,-324.91"/>
<text text-anchor="middle" x="180" y="-309.71" font-family="Times,serif" font-size="14.00">a</text>
<text text-anchor="middle" x="180" y="-294.71" font-family="Times,serif" font-size="14.00">~</text>
<text text-anchor="middle" x="180" y="-279.71" font-family="Times,serif" font-size="14.00">Deterministic</text>
</g>
<!-- g&#45;&gt;a -->
<g id="edge1" class="edge">
<title>g&#45;&gt;a</title>
<path fill="none" stroke="black" d="M180,-382.72C180,-367.75 180,-350.48 180,-335.56"/>
<polygon fill="black" stroke="black" points="183.5,-335.18 180,-325.18 176.5,-335.18 183.5,-335.18"/>
</g>
<!-- sigma_a -->
<g id="node2" class="node">
<title>sigma_a</title>
<ellipse fill="none" stroke="black" cx="301" cy="-298.41" rx="57.97" ry="37.45"/>
<text text-anchor="middle" x="301" y="-309.71" font-family="Times,serif" font-size="14.00">sigma_a</text>
<text text-anchor="middle" x="301" y="-294.71" font-family="Times,serif" font-size="14.00">~</text>
<text text-anchor="middle" x="301" y="-279.71" font-family="Times,serif" font-size="14.00">Exponential</text>
</g>
<!-- a_mouse -->
<g id="node6" class="node">
<title>a_mouse</title>
<polygon fill="none" stroke="black" points="225.5,-213.95 134.5,-213.95 134.5,-160.95 225.5,-160.95 225.5,-213.95"/>
<text text-anchor="middle" x="180" y="-198.75" font-family="Times,serif" font-size="14.00">a_mouse</text>
<text text-anchor="middle" x="180" y="-183.75" font-family="Times,serif" font-size="14.00">~</text>
<text text-anchor="middle" x="180" y="-168.75" font-family="Times,serif" font-size="14.00">Deterministic</text>
</g>
<!-- sigma_a&#45;&gt;a_mouse -->
<g id="edge2" class="edge">
<title>sigma_a&#45;&gt;a_mouse</title>
<path fill="none" stroke="black" d="M267.62,-267.35C251.63,-252.95 232.45,-235.68 216.12,-220.98"/>
<polygon fill="black" stroke="black" points="218.13,-218.08 208.36,-213.99 213.45,-223.28 218.13,-218.08"/>
</g>
<!-- sigma -->
<g id="node3" class="node">
<title>sigma</title>
<ellipse fill="none" stroke="black" cx="301" cy="-187.45" rx="57.97" ry="37.45"/>
<text text-anchor="middle" x="301" y="-198.75" font-family="Times,serif" font-size="14.00">sigma</text>
<text text-anchor="middle" x="301" y="-183.75" font-family="Times,serif" font-size="14.00">~</text>
<text text-anchor="middle" x="301" y="-168.75" font-family="Times,serif" font-size="14.00">Exponential</text>
</g>
<!-- y -->
<g id="node8" class="node">
<title>y</title>
<ellipse fill="lightgrey" stroke="black" cx="301" cy="-76.48" rx="41.94" ry="37.45"/>
<text text-anchor="middle" x="301" y="-87.78" font-family="Times,serif" font-size="14.00">y</text>
<text text-anchor="middle" x="301" y="-72.78" font-family="Times,serif" font-size="14.00">~</text>
<text text-anchor="middle" x="301" y="-57.78" font-family="Times,serif" font-size="14.00">Normal</text>
</g>
<!-- sigma&#45;&gt;y -->
<g id="edge5" class="edge">
<title>sigma&#45;&gt;y</title>
<path fill="none" stroke="black" d="M301,-149.86C301,-141.69 301,-132.9 301,-124.38"/>
<polygon fill="black" stroke="black" points="304.5,-124.16 301,-114.16 297.5,-124.16 304.5,-124.16"/>
</g>
<!-- b -->
<g id="node4" class="node">
<title>b</title>
<ellipse fill="none" stroke="black" cx="419" cy="-187.45" rx="41.94" ry="37.45"/>
<text text-anchor="middle" x="419" y="-198.75" font-family="Times,serif" font-size="14.00">b</text>
<text text-anchor="middle" x="419" y="-183.75" font-family="Times,serif" font-size="14.00">~</text>
<text text-anchor="middle" x="419" y="-168.75" font-family="Times,serif" font-size="14.00">Normal</text>
</g>
<!-- b&#45;&gt;y -->
<g id="edge7" class="edge">
<title>b&#45;&gt;y</title>
<path fill="none" stroke="black" d="M394.23,-157.1C386.18,-148.08 376.99,-138.33 368,-129.95 359.56,-122.08 350.03,-114.13 340.86,-106.87"/>
<polygon fill="black" stroke="black" points="342.98,-104.09 332.94,-100.7 338.68,-109.61 342.98,-104.09"/>
</g>
<!-- a&#45;&gt;a_mouse -->
<g id="edge3" class="edge">
<title>a&#45;&gt;a_mouse</title>
<path fill="none" stroke="black" d="M180,-271.86C180,-257.76 180,-240.01 180,-224.51"/>
<polygon fill="black" stroke="black" points="183.5,-224.22 180,-214.22 176.5,-224.22 183.5,-224.22"/>
</g>
<!-- a_mouse&#45;&gt;y -->
<g id="edge6" class="edge">
<title>a_mouse&#45;&gt;y</title>
<path fill="none" stroke="black" d="M202.92,-160.94C212.25,-150.96 223.34,-139.61 234,-129.95 242.55,-122.2 252.12,-114.3 261.3,-107.05"/>
<polygon fill="black" stroke="black" points="263.48,-109.78 269.22,-100.87 259.18,-104.26 263.48,-109.78"/>
</g>
<!-- za_mouse -->
<g id="node7" class="node">
<title>za_mouse</title>
<ellipse fill="none" stroke="black" cx="66" cy="-298.41" rx="50.41" ry="37.45"/>
<text text-anchor="middle" x="66" y="-309.71" font-family="Times,serif" font-size="14.00">za_mouse</text>
<text text-anchor="middle" x="66" y="-294.71" font-family="Times,serif" font-size="14.00">~</text>
<text text-anchor="middle" x="66" y="-279.71" font-family="Times,serif" font-size="14.00">Normal</text>
</g>
<!-- za_mouse&#45;&gt;a_mouse -->
<g id="edge4" class="edge">
<title>za_mouse&#45;&gt;a_mouse</title>
<path fill="none" stroke="black" d="M96.25,-268.5C111.44,-253.98 129.91,-236.32 145.64,-221.29"/>
<polygon fill="black" stroke="black" points="148.3,-223.59 153.11,-214.15 143.46,-218.53 148.3,-223.59"/>
</g>
</g>
</svg>
