<?xml version="1.0" encoding="UTF-8" standalone="no"?>
<!DOCTYPE svg PUBLIC "-//W3C//DTD SVG 1.1//EN"
 "http://www.w3.org/Graphics/SVG/1.1/DTD/svg11.dtd">
<!-- Generated by graphviz version 2.42.3 (20191010.1750)
 -->
<!-- Title: %3 Pages: 1 -->
<svg width="416pt" height="382pt"
 viewBox="0.00 0.00 415.72 381.86" xmlns="http://www.w3.org/2000/svg" xmlns:xlink="http://www.w3.org/1999/xlink">
<g id="graph0" class="graph" transform="scale(1 1) rotate(0) translate(4 377.86)">
<title>%3</title>
<polygon fill="white" stroke="transparent" points="-4,4 -4,-377.86 411.72,-377.86 411.72,4 -4,4"/>
<g id="clust1" class="cluster">
<title>cluster2</title>
<path fill="none" stroke="black" d="M20,-251.91C20,-251.91 108,-251.91 108,-251.91 114,-251.91 120,-257.91 120,-263.91 120,-263.91 120,-353.86 120,-353.86 120,-359.86 114,-365.86 108,-365.86 108,-365.86 20,-365.86 20,-365.86 14,-365.86 8,-359.86 8,-353.86 8,-353.86 8,-263.91 8,-263.91 8,-257.91 14,-251.91 20,-251.91"/>
<text text-anchor="middle" x="108.5" y="-259.71" font-family="Times,serif" font-size="14.00">2</text>
</g>
<g id="clust2" class="cluster">
<title>cluster85</title>
<path fill="none" stroke="black" d="M84,-129.95C84,-129.95 168,-129.95 168,-129.95 174,-129.95 180,-135.95 180,-141.95 180,-141.95 180,-231.91 180,-231.91 180,-237.91 174,-243.91 168,-243.91 168,-243.91 84,-243.91 84,-243.91 78,-243.91 72,-237.91 72,-231.91 72,-231.91 72,-141.95 72,-141.95 72,-135.95 78,-129.95 84,-129.95"/>
<text text-anchor="middle" x="165" y="-137.75" font-family="Times,serif" font-size="14.00">85</text>
</g>
<g id="clust3" class="cluster">
<title>cluster919</title>
<path fill="none" stroke="black" d="M210,-8C210,-8 286,-8 286,-8 292,-8 298,-14 298,-20 298,-20 298,-109.95 298,-109.95 298,-115.95 292,-121.95 286,-121.95 286,-121.95 210,-121.95 210,-121.95 204,-121.95 198,-115.95 198,-109.95 198,-109.95 198,-20 198,-20 198,-14 204,-8 210,-8"/>
<text text-anchor="middle" x="279.5" y="-15.8" font-family="Times,serif" font-size="14.00">919</text>
</g>
<!-- g_neuron -->
<g id="node1" class="node">
<title>g_neuron</title>
<ellipse fill="none" stroke="black" cx="64" cy="-320.38" rx="48.17" ry="37.45"/>
<text text-anchor="middle" x="64" y="-331.68" font-family="Times,serif" font-size="14.00">g_neuron</text>
<text text-anchor="middle" x="64" y="-316.68" font-family="Times,serif" font-size="14.00">~</text>
<text text-anchor="middle" x="64" y="-301.68" font-family="Times,serif" font-size="14.00">Normal</text>
</g>
<!-- a_mouse -->
<g id="node5" class="node">
<title>a_mouse</title>
<ellipse fill="none" stroke="black" cx="126" cy="-198.43" rx="45.92" ry="37.45"/>
<text text-anchor="middle" x="126" y="-209.73" font-family="Times,serif" font-size="14.00">a_mouse</text>
<text text-anchor="middle" x="126" y="-194.73" font-family="Times,serif" font-size="14.00">~</text>
<text text-anchor="middle" x="126" y="-179.73" font-family="Times,serif" font-size="14.00">Normal</text>
</g>
<!-- g_neuron&#45;&gt;a_mouse -->
<g id="edge2" class="edge">
<title>g_neuron&#45;&gt;a_mouse</title>
<path fill="none" stroke="black" d="M81.6,-285.33C88.53,-271.92 96.57,-256.37 103.89,-242.22"/>
<polygon fill="black" stroke="black" points="107.09,-243.64 108.57,-233.15 100.87,-240.43 107.09,-243.64"/>
</g>
<!-- sigma_a -->
<g id="node2" class="node">
<title>sigma_a</title>
<ellipse fill="none" stroke="black" cx="188" cy="-320.38" rx="57.97" ry="37.45"/>
<text text-anchor="middle" x="188" y="-331.68" font-family="Times,serif" font-size="14.00">sigma_a</text>
<text text-anchor="middle" x="188" y="-316.68" font-family="Times,serif" font-size="14.00">~</text>
<text text-anchor="middle" x="188" y="-301.68" font-family="Times,serif" font-size="14.00">Exponential</text>
</g>
<!-- sigma_a&#45;&gt;a_mouse -->
<g id="edge1" class="edge">
<title>sigma_a&#45;&gt;a_mouse</title>
<path fill="none" stroke="black" d="M170.07,-284.69C163.2,-271.41 155.29,-256.1 148.08,-242.15"/>
<polygon fill="black" stroke="black" points="151.17,-240.5 143.47,-233.22 144.95,-243.71 151.17,-240.5"/>
</g>
<!-- sigma -->
<g id="node3" class="node">
<title>sigma</title>
<ellipse fill="none" stroke="black" cx="248" cy="-198.43" rx="57.97" ry="37.45"/>
<text text-anchor="middle" x="248" y="-209.73" font-family="Times,serif" font-size="14.00">sigma</text>
<text text-anchor="middle" x="248" y="-194.73" font-family="Times,serif" font-size="14.00">~</text>
<text text-anchor="middle" x="248" y="-179.73" font-family="Times,serif" font-size="14.00">Exponential</text>
</g>
<!-- y -->
<g id="node6" class="node">
<title>y</title>
<ellipse fill="lightgrey" stroke="black" cx="248" cy="-76.48" rx="41.94" ry="37.45"/>
<text text-anchor="middle" x="248" y="-87.78" font-family="Times,serif" font-size="14.00">y</text>
<text text-anchor="middle" x="248" y="-72.78" font-family="Times,serif" font-size="14.00">~</text>
<text text-anchor="middle" x="248" y="-57.78" font-family="Times,serif" font-size="14.00">Normal</text>
</g>
<!-- sigma&#45;&gt;y -->
<g id="edge3" class="edge">
<title>sigma&#45;&gt;y</title>
<path fill="none" stroke="black" d="M248,-160.79C248,-149.38 248,-136.65 248,-124.63"/>
<polygon fill="black" stroke="black" points="251.5,-124.31 248,-114.31 244.5,-124.31 251.5,-124.31"/>
</g>
<!-- b -->
<g id="node4" class="node">
<title>b</title>
<ellipse fill="none" stroke="black" cx="366" cy="-198.43" rx="41.94" ry="37.45"/>
<text text-anchor="middle" x="366" y="-209.73" font-family="Times,serif" font-size="14.00">b</text>
<text text-anchor="middle" x="366" y="-194.73" font-family="Times,serif" font-size="14.00">~</text>
<text text-anchor="middle" x="366" y="-179.73" font-family="Times,serif" font-size="14.00">Normal</text>
</g>
<!-- b&#45;&gt;y -->
<g id="edge5" class="edge">
<title>b&#45;&gt;y</title>
<path fill="none" stroke="black" d="M344.73,-165.83C336.13,-154.02 325.71,-140.84 315,-129.95 306.91,-121.72 297.52,-113.63 288.37,-106.35"/>
<polygon fill="black" stroke="black" points="290.48,-103.56 280.44,-100.19 286.19,-109.09 290.48,-103.56"/>
</g>
<!-- a_mouse&#45;&gt;y -->
<g id="edge4" class="edge">
<title>a_mouse&#45;&gt;y</title>
<path fill="none" stroke="black" d="M149.28,-165.95C158.6,-154.16 169.78,-140.96 181,-129.95 189.24,-121.87 198.69,-113.84 207.84,-106.57"/>
<polygon fill="black" stroke="black" points="210.03,-109.3 215.77,-100.4 205.73,-103.78 210.03,-109.3"/>
</g>
</g>
</svg>
