<?xml version="1.0" encoding="UTF-8" standalone="no"?>
<!DOCTYPE svg PUBLIC "-//W3C//DTD SVG 1.1//EN"
 "http://www.w3.org/Graphics/SVG/1.1/DTD/svg11.dtd">
<!-- Generated by graphviz version 2.38.0 (20140413.2041)
 -->
<!-- Title: %3 Pages: 1 -->
<svg width="408pt" height="238pt"
 viewBox="0.00 0.00 408.14 238.00" xmlns="http://www.w3.org/2000/svg" xmlns:xlink="http://www.w3.org/1999/xlink">
<g id="graph0" class="graph" transform="scale(1 1) rotate(0) translate(4 234)">
<title>%3</title>
<polygon fill="white" stroke="none" points="-4,4 -4,-234 404.138,-234 404.138,4 -4,4"/>
<g id="clust1" class="cluster"><title>cluster85</title>
<path fill="none" stroke="black" d="M57.9954,-91C57.9954,-91 207.995,-91 207.995,-91 213.995,-91 219.995,-97 219.995,-103 219.995,-103 219.995,-154 219.995,-154 219.995,-160 213.995,-166 207.995,-166 207.995,-166 57.9954,-166 57.9954,-166 51.9954,-166 45.9954,-160 45.9954,-154 45.9954,-154 45.9954,-103 45.9954,-103 45.9954,-97 51.9954,-91 57.9954,-91"/>
<text text-anchor="middle" x="204.995" y="-98.8" font-family="Times,serif" font-size="14.00">85</text>
</g>
<g id="clust2" class="cluster"><title>cluster919</title>
<path fill="none" stroke="black" d="M97.9954,-8C97.9954,-8 193.995,-8 193.995,-8 199.995,-8 205.995,-14 205.995,-20 205.995,-20 205.995,-71 205.995,-71 205.995,-77 199.995,-83 193.995,-83 193.995,-83 97.9954,-83 97.9954,-83 91.9954,-83 85.9954,-77 85.9954,-71 85.9954,-71 85.9954,-20 85.9954,-20 85.9954,-14 91.9954,-8 97.9954,-8"/>
<text text-anchor="middle" x="187.495" y="-15.8" font-family="Times,serif" font-size="14.00">919</text>
</g>
<!-- a -->
<g id="node1" class="node"><title>a</title>
<ellipse fill="none" stroke="black" cx="51.9954" cy="-212" rx="51.9908" ry="18"/>
<text text-anchor="middle" x="51.9954" y="-208.3" font-family="Times,serif" font-size="14.00">a ~ Normal</text>
</g>
<!-- a_mouse -->
<g id="node4" class="node"><title>a_mouse</title>
<ellipse fill="none" stroke="black" cx="132.995" cy="-140" rx="79.0865" ry="18"/>
<text text-anchor="middle" x="132.995" y="-136.3" font-family="Times,serif" font-size="14.00">a_mouse ~ Normal</text>
</g>
<!-- a&#45;&gt;a_mouse -->
<g id="edge2" class="edge"><title>a&#45;&gt;a_mouse</title>
<path fill="none" stroke="black" d="M70.3755,-195.116C80.9186,-186.005 94.3466,-174.4 106.062,-164.276"/>
<polygon fill="black" stroke="black" points="108.565,-166.738 113.843,-157.552 103.988,-161.442 108.565,-166.738"/>
</g>
<!-- sigma_a -->
<g id="node2" class="node"><title>sigma_a</title>
<ellipse fill="none" stroke="black" cx="214.995" cy="-212" rx="92.8835" ry="18"/>
<text text-anchor="middle" x="214.995" y="-208.3" font-family="Times,serif" font-size="14.00">sigma_a ~ Exponential</text>
</g>
<!-- sigma_a&#45;&gt;a_mouse -->
<g id="edge1" class="edge"><title>sigma_a&#45;&gt;a_mouse</title>
<path fill="none" stroke="black" d="M195.145,-194.055C184.593,-185.047 171.467,-173.842 160.001,-164.053"/>
<polygon fill="black" stroke="black" points="162.258,-161.378 152.38,-157.547 157.713,-166.702 162.258,-161.378"/>
</g>
<!-- sigma -->
<g id="node3" class="node"><title>sigma</title>
<ellipse fill="none" stroke="black" cx="314.995" cy="-140" rx="85.2851" ry="18"/>
<text text-anchor="middle" x="314.995" y="-136.3" font-family="Times,serif" font-size="14.00">sigma ~ Exponential</text>
</g>
<!-- y -->
<g id="node5" class="node"><title>y</title>
<ellipse fill="lightgrey" stroke="black" cx="145.995" cy="-57" rx="51.9908" ry="18"/>
<text text-anchor="middle" x="145.995" y="-53.3" font-family="Times,serif" font-size="14.00">y ~ Normal</text>
</g>
<!-- sigma&#45;&gt;y -->
<g id="edge4" class="edge"><title>sigma&#45;&gt;y</title>
<path fill="none" stroke="black" d="M286.217,-123.015C268.471,-113.36 245.137,-101.026 223.995,-91 212.578,-85.5857 200.036,-80.0877 188.412,-75.1724"/>
<polygon fill="black" stroke="black" points="189.484,-71.8269 178.908,-71.1951 186.781,-78.2842 189.484,-71.8269"/>
</g>
<!-- a_mouse&#45;&gt;y -->
<g id="edge3" class="edge"><title>a_mouse&#45;&gt;y</title>
<path fill="none" stroke="black" d="M135.752,-121.822C137.459,-111.19 139.687,-97.306 141.629,-85.2035"/>
<polygon fill="black" stroke="black" points="145.113,-85.5816 143.242,-75.1533 138.202,-84.4722 145.113,-85.5816"/>
</g>
</g>
</svg>
