<?xml version="1.0" encoding="UTF-8" standalone="no"?>
<!DOCTYPE svg PUBLIC "-//W3C//DTD SVG 1.1//EN"
 "http://www.w3.org/Graphics/SVG/1.1/DTD/svg11.dtd">
<!-- Generated by graphviz version 2.38.0 (20140413.2041)
 -->
<!-- Title: %3 Pages: 1 -->
<svg width="1030pt" height="254pt"
 viewBox="0.00 0.00 1030.00 254.00" xmlns="http://www.w3.org/2000/svg" xmlns:xlink="http://www.w3.org/1999/xlink">
<g id="graph0" class="graph" transform="scale(1 1) rotate(0) translate(4 250)">
<title>%3</title>
<polygon fill="white" stroke="none" points="-4,4 -4,-250 1026,-250 1026,4 -4,4"/>
<g id="clust1" class="cluster"><title>cluster85</title>
<path fill="none" stroke="black" d="M657.995,-163C657.995,-163 1002,-163 1002,-163 1008,-163 1014,-169 1014,-175 1014,-175 1014,-226 1014,-226 1014,-232 1008,-238 1002,-238 1002,-238 657.995,-238 657.995,-238 651.995,-238 645.995,-232 645.995,-226 645.995,-226 645.995,-175 645.995,-175 645.995,-169 651.995,-163 657.995,-163"/>
<text text-anchor="middle" x="998.995" y="-170.8" font-family="Times,serif" font-size="14.00">85</text>
</g>
<g id="clust2" class="cluster"><title>cluster919</title>
<path fill="none" stroke="black" d="M306.995,-8C306.995,-8 558.995,-8 558.995,-8 564.995,-8 570.995,-14 570.995,-20 570.995,-20 570.995,-143 570.995,-143 570.995,-149 564.995,-155 558.995,-155 558.995,-155 306.995,-155 306.995,-155 300.995,-155 294.995,-149 294.995,-143 294.995,-143 294.995,-20 294.995,-20 294.995,-14 300.995,-8 306.995,-8"/>
<text text-anchor="middle" x="552.495" y="-15.8" font-family="Times,serif" font-size="14.00">919</text>
</g>
<!-- a -->
<g id="node1" class="node"><title>a</title>
<ellipse fill="none" stroke="black" cx="51.9954" cy="-212" rx="51.9908" ry="18"/>
<text text-anchor="middle" x="51.9954" y="-208.3" font-family="Times,serif" font-size="14.00">a ~ Normal</text>
</g>
<!-- aa -->
<g id="node8" class="node"><title>aa</title>
<polygon fill="none" stroke="black" points="422.995,-147 302.995,-147 302.995,-111 422.995,-111 422.995,-147"/>
<text text-anchor="middle" x="362.995" y="-125.3" font-family="Times,serif" font-size="14.00">aa ~ Deterministic</text>
</g>
<!-- a&#45;&gt;aa -->
<g id="edge3" class="edge"><title>a&#45;&gt;aa</title>
<path fill="none" stroke="black" d="M68.006,-194.411C79.4721,-183.608 95.8592,-170.224 112.995,-163 144.426,-149.75 230.22,-140.403 292.551,-135.118"/>
<polygon fill="black" stroke="black" points="293.053,-138.588 302.729,-134.273 292.474,-131.612 293.053,-138.588"/>
</g>
<!-- sigma_a -->
<g id="node2" class="node"><title>sigma_a</title>
<ellipse fill="none" stroke="black" cx="214.995" cy="-212" rx="92.8835" ry="18"/>
<text text-anchor="middle" x="214.995" y="-208.3" font-family="Times,serif" font-size="14.00">sigma_a ~ Exponential</text>
</g>
<!-- sigma_a&#45;&gt;aa -->
<g id="edge1" class="edge"><title>sigma_a&#45;&gt;aa</title>
<path fill="none" stroke="black" d="M244.59,-194.803C267.129,-182.468 298.389,-165.359 323.13,-151.818"/>
<polygon fill="black" stroke="black" points="324.83,-154.878 331.922,-147.006 321.469,-148.737 324.83,-154.878"/>
</g>
<!-- sigma_b -->
<g id="node3" class="node"><title>sigma_b</title>
<ellipse fill="none" stroke="black" cx="419.995" cy="-212" rx="93.6835" ry="18"/>
<text text-anchor="middle" x="419.995" y="-208.3" font-family="Times,serif" font-size="14.00">sigma_b ~ Exponential</text>
</g>
<!-- bb -->
<g id="node10" class="node"><title>bb</title>
<polygon fill="none" stroke="black" points="562.995,-147 440.995,-147 440.995,-111 562.995,-111 562.995,-147"/>
<text text-anchor="middle" x="501.995" y="-125.3" font-family="Times,serif" font-size="14.00">bb ~ Deterministic</text>
</g>
<!-- sigma_b&#45;&gt;bb -->
<g id="edge6" class="edge"><title>sigma_b&#45;&gt;bb</title>
<path fill="none" stroke="black" d="M436.986,-194.217C448.672,-182.673 464.376,-167.161 477.421,-154.275"/>
<polygon fill="black" stroke="black" points="480.09,-156.558 484.745,-147.04 475.171,-151.578 480.09,-156.558"/>
</g>
<!-- b -->
<g id="node4" class="node"><title>b</title>
<ellipse fill="none" stroke="black" cx="583.995" cy="-212" rx="51.9908" ry="18"/>
<text text-anchor="middle" x="583.995" y="-208.3" font-family="Times,serif" font-size="14.00">b ~ Normal</text>
</g>
<!-- b&#45;&gt;bb -->
<g id="edge4" class="edge"><title>b&#45;&gt;bb</title>
<path fill="none" stroke="black" d="M567.401,-194.608C555.744,-183.093 539.947,-167.488 526.798,-154.5"/>
<polygon fill="black" stroke="black" points="528.988,-151.743 519.414,-147.206 524.068,-156.723 528.988,-151.743"/>
</g>
<!-- sigma -->
<g id="node5" class="node"><title>sigma</title>
<ellipse fill="none" stroke="black" cx="665.995" cy="-129" rx="85.2851" ry="18"/>
<text text-anchor="middle" x="665.995" y="-125.3" font-family="Times,serif" font-size="14.00">sigma ~ Exponential</text>
</g>
<!-- y -->
<g id="node9" class="node"><title>y</title>
<ellipse fill="lightgrey" stroke="black" cx="501.995" cy="-57" rx="51.9908" ry="18"/>
<text text-anchor="middle" x="501.995" y="-53.3" font-family="Times,serif" font-size="14.00">y ~ Normal</text>
</g>
<!-- sigma&#45;&gt;y -->
<g id="edge8" class="edge"><title>sigma&#45;&gt;y</title>
<path fill="none" stroke="black" d="M630.005,-112.638C604.308,-101.67 569.699,-86.8977 542.945,-75.4786"/>
<polygon fill="black" stroke="black" points="544.046,-72.1432 533.475,-71.4365 541.298,-78.5813 544.046,-72.1432"/>
</g>
<!-- za_mouse -->
<g id="node6" class="node"><title>za_mouse</title>
<ellipse fill="none" stroke="black" cx="736.995" cy="-212" rx="83.3857" ry="18"/>
<text text-anchor="middle" x="736.995" y="-208.3" font-family="Times,serif" font-size="14.00">za_mouse ~ Normal</text>
</g>
<!-- za_mouse&#45;&gt;aa -->
<g id="edge2" class="edge"><title>za_mouse&#45;&gt;aa</title>
<path fill="none" stroke="black" d="M712.843,-194.585C694.964,-183.411 669.549,-169.511 644.995,-163 599.211,-150.859 478.487,-164.065 431.995,-155 425.84,-153.8 419.501,-152.137 413.277,-150.234"/>
<polygon fill="black" stroke="black" points="414.225,-146.862 403.633,-147.077 412.048,-153.514 414.225,-146.862"/>
</g>
<!-- zb_mouse -->
<g id="node7" class="node"><title>zb_mouse</title>
<ellipse fill="none" stroke="black" cx="921.995" cy="-212" rx="83.6854" ry="18"/>
<text text-anchor="middle" x="921.995" y="-208.3" font-family="Times,serif" font-size="14.00">zb_mouse ~ Normal</text>
</g>
<!-- zb_mouse&#45;&gt;bb -->
<g id="edge5" class="edge"><title>zb_mouse&#45;&gt;bb</title>
<path fill="none" stroke="black" d="M897.568,-194.538C879.488,-183.34 853.794,-169.432 828.995,-163 773.687,-148.654 628.137,-165.627 571.995,-155 565.755,-153.819 559.326,-152.168 553.013,-150.271"/>
<polygon fill="black" stroke="black" points="553.822,-146.854 543.23,-147.121 551.676,-153.517 553.822,-146.854"/>
</g>
<!-- aa&#45;&gt;y -->
<g id="edge7" class="edge"><title>aa&#45;&gt;y</title>
<path fill="none" stroke="black" d="M396.999,-110.876C417.442,-100.581 443.487,-87.4647 464.522,-76.8714"/>
<polygon fill="black" stroke="black" points="466.14,-79.9755 473.497,-72.3517 462.991,-73.7235 466.14,-79.9755"/>
</g>
<!-- bb&#45;&gt;y -->
<g id="edge9" class="edge"><title>bb&#45;&gt;y</title>
<path fill="none" stroke="black" d="M501.995,-110.697C501.995,-102.983 501.995,-93.7125 501.995,-85.1124"/>
<polygon fill="black" stroke="black" points="505.495,-85.1043 501.995,-75.1043 498.495,-85.1044 505.495,-85.1043"/>
</g>
</g>
</svg>
