<?xml version="1.0" encoding="UTF-8" standalone="no"?>
<!DOCTYPE svg PUBLIC "-//W3C//DTD SVG 1.1//EN"
 "http://www.w3.org/Graphics/SVG/1.1/DTD/svg11.dtd">
<!-- Generated by graphviz version 2.38.0 (20140413.2041)
 -->
<!-- Title: %3 Pages: 1 -->
<svg width="682pt" height="238pt"
 viewBox="0.00 0.00 682.14 238.00" xmlns="http://www.w3.org/2000/svg" xmlns:xlink="http://www.w3.org/1999/xlink">
<g id="graph0" class="graph" transform="scale(1 1) rotate(0) translate(4 234)">
<title>%3</title>
<polygon fill="white" stroke="none" points="-4,4 -4,-234 678.138,-234 678.138,4 -4,4"/>
<g id="clust1" class="cluster"><title>cluster85</title>
<path fill="none" stroke="black" d="M153.995,-91C153.995,-91 481.995,-91 481.995,-91 487.995,-91 493.995,-97 493.995,-103 493.995,-103 493.995,-154 493.995,-154 493.995,-160 487.995,-166 481.995,-166 481.995,-166 153.995,-166 153.995,-166 147.995,-166 141.995,-160 141.995,-154 141.995,-154 141.995,-103 141.995,-103 141.995,-97 147.995,-91 153.995,-91"/>
<text text-anchor="middle" x="478.995" y="-98.8" font-family="Times,serif" font-size="14.00">85</text>
</g>
<g id="clust2" class="cluster"><title>cluster919</title>
<path fill="none" stroke="black" d="M357.995,-8C357.995,-8 453.995,-8 453.995,-8 459.995,-8 465.995,-14 465.995,-20 465.995,-20 465.995,-71 465.995,-71 465.995,-77 459.995,-83 453.995,-83 453.995,-83 357.995,-83 357.995,-83 351.995,-83 345.995,-77 345.995,-71 345.995,-71 345.995,-20 345.995,-20 345.995,-14 351.995,-8 357.995,-8"/>
<text text-anchor="middle" x="447.495" y="-15.8" font-family="Times,serif" font-size="14.00">919</text>
</g>
<!-- a -->
<g id="node1" class="node"><title>a</title>
<ellipse fill="none" stroke="black" cx="51.9954" cy="-212" rx="51.9908" ry="18"/>
<text text-anchor="middle" x="51.9954" y="-208.3" font-family="Times,serif" font-size="14.00">a ~ Normal</text>
</g>
<!-- a_mouse -->
<g id="node7" class="node"><title>a_mouse</title>
<ellipse fill="none" stroke="black" cx="228.995" cy="-140" rx="79.0865" ry="18"/>
<text text-anchor="middle" x="228.995" y="-136.3" font-family="Times,serif" font-size="14.00">a_mouse ~ Normal</text>
</g>
<!-- a&#45;&gt;a_mouse -->
<g id="edge2" class="edge"><title>a&#45;&gt;a_mouse</title>
<path fill="none" stroke="black" d="M84.8729,-197.998C112.117,-187.223 151.187,-171.772 181.777,-159.674"/>
<polygon fill="black" stroke="black" points="183.373,-162.806 191.385,-155.874 180.799,-156.297 183.373,-162.806"/>
</g>
<!-- sigma_a -->
<g id="node2" class="node"><title>sigma_a</title>
<ellipse fill="none" stroke="black" cx="214.995" cy="-212" rx="92.8835" ry="18"/>
<text text-anchor="middle" x="214.995" y="-208.3" font-family="Times,serif" font-size="14.00">sigma_a ~ Exponential</text>
</g>
<!-- sigma_a&#45;&gt;a_mouse -->
<g id="edge1" class="edge"><title>sigma_a&#45;&gt;a_mouse</title>
<path fill="none" stroke="black" d="M218.456,-193.697C219.999,-185.983 221.853,-176.712 223.573,-168.112"/>
<polygon fill="black" stroke="black" points="227.045,-168.597 225.575,-158.104 220.181,-167.224 227.045,-168.597"/>
</g>
<!-- sigma_b -->
<g id="node3" class="node"><title>sigma_b</title>
<ellipse fill="none" stroke="black" cx="419.995" cy="-212" rx="93.6835" ry="18"/>
<text text-anchor="middle" x="419.995" y="-208.3" font-family="Times,serif" font-size="14.00">sigma_b ~ Exponential</text>
</g>
<!-- b_mouse -->
<g id="node6" class="node"><title>b_mouse</title>
<ellipse fill="none" stroke="black" cx="405.995" cy="-140" rx="79.8859" ry="18"/>
<text text-anchor="middle" x="405.995" y="-136.3" font-family="Times,serif" font-size="14.00">b_mouse ~ Normal</text>
</g>
<!-- sigma_b&#45;&gt;b_mouse -->
<g id="edge4" class="edge"><title>sigma_b&#45;&gt;b_mouse</title>
<path fill="none" stroke="black" d="M416.535,-193.697C414.992,-185.983 413.138,-176.712 411.418,-168.112"/>
<polygon fill="black" stroke="black" points="414.81,-167.224 409.416,-158.104 407.945,-168.597 414.81,-167.224"/>
</g>
<!-- b -->
<g id="node4" class="node"><title>b</title>
<ellipse fill="none" stroke="black" cx="583.995" cy="-212" rx="51.9908" ry="18"/>
<text text-anchor="middle" x="583.995" y="-208.3" font-family="Times,serif" font-size="14.00">b ~ Normal</text>
</g>
<!-- b&#45;&gt;b_mouse -->
<g id="edge3" class="edge"><title>b&#45;&gt;b_mouse</title>
<path fill="none" stroke="black" d="M550.932,-197.998C523.534,-187.223 484.243,-171.772 453.48,-159.674"/>
<polygon fill="black" stroke="black" points="454.405,-156.277 443.818,-155.874 451.843,-162.791 454.405,-156.277"/>
</g>
<!-- sigma -->
<g id="node5" class="node"><title>sigma</title>
<ellipse fill="none" stroke="black" cx="588.995" cy="-140" rx="85.2851" ry="18"/>
<text text-anchor="middle" x="588.995" y="-136.3" font-family="Times,serif" font-size="14.00">sigma ~ Exponential</text>
</g>
<!-- y -->
<g id="node8" class="node"><title>y</title>
<ellipse fill="lightgrey" stroke="black" cx="405.995" cy="-57" rx="51.9908" ry="18"/>
<text text-anchor="middle" x="405.995" y="-53.3" font-family="Times,serif" font-size="14.00">y ~ Normal</text>
</g>
<!-- sigma&#45;&gt;y -->
<g id="edge7" class="edge"><title>sigma&#45;&gt;y</title>
<path fill="none" stroke="black" d="M560.815,-122.814C543.092,-112.969 519.573,-100.504 497.995,-91 483.346,-84.5475 467,-78.3694 452.198,-73.1396"/>
<polygon fill="black" stroke="black" points="453.321,-69.8248 442.727,-69.8464 451.022,-76.4365 453.321,-69.8248"/>
</g>
<!-- b_mouse&#45;&gt;y -->
<g id="edge6" class="edge"><title>b_mouse&#45;&gt;y</title>
<path fill="none" stroke="black" d="M405.995,-121.822C405.995,-111.19 405.995,-97.306 405.995,-85.2035"/>
<polygon fill="black" stroke="black" points="409.495,-85.1532 405.995,-75.1533 402.495,-85.1533 409.495,-85.1532"/>
</g>
<!-- a_mouse&#45;&gt;y -->
<g id="edge5" class="edge"><title>a_mouse&#45;&gt;y</title>
<path fill="none" stroke="black" d="M255.83,-123.047C273.001,-113.171 295.93,-100.59 316.995,-91 330.888,-84.6756 346.378,-78.6077 360.491,-73.4386"/>
<polygon fill="black" stroke="black" points="361.784,-76.6934 370.006,-70.0115 359.411,-70.1076 361.784,-76.6934"/>
</g>
</g>
</svg>
