<?xml version="1.0" encoding="UTF-8" standalone="no"?>
<!DOCTYPE svg PUBLIC "-//W3C//DTD SVG 1.1//EN"
 "http://www.w3.org/Graphics/SVG/1.1/DTD/svg11.dtd">
<!-- Generated by graphviz version 2.42.3 (20191010.1750)
 -->
<!-- Title: %3 Pages: 1 -->
<svg width="849pt" height="260pt"
 viewBox="0.00 0.00 848.72 259.91" xmlns="http://www.w3.org/2000/svg" xmlns:xlink="http://www.w3.org/1999/xlink">
<g id="graph0" class="graph" transform="scale(1 1) rotate(0) translate(4 255.91)">
<title>%3</title>
<polygon fill="white" stroke="transparent" points="-4,4 -4,-255.91 844.72,-255.91 844.72,4 -4,4"/>
<g id="clust1" class="cluster">
<title>cluster85</title>
<path fill="none" stroke="black" d="M608.72,-129.95C608.72,-129.95 820.72,-129.95 820.72,-129.95 826.72,-129.95 832.72,-135.95 832.72,-141.95 832.72,-141.95 832.72,-231.91 832.72,-231.91 832.72,-237.91 826.72,-243.91 820.72,-243.91 820.72,-243.91 608.72,-243.91 608.72,-243.91 602.72,-243.91 596.72,-237.91 596.72,-231.91 596.72,-231.91 596.72,-141.95 596.72,-141.95 596.72,-135.95 602.72,-129.95 608.72,-129.95"/>
<text text-anchor="middle" x="817.72" y="-137.75" font-family="Times,serif" font-size="14.00">85</text>
</g>
<g id="clust2" class="cluster">
<title>cluster919</title>
<path fill="none" stroke="black" d="M356.72,-8C356.72,-8 432.72,-8 432.72,-8 438.72,-8 444.72,-14 444.72,-20 444.72,-20 444.72,-109.95 444.72,-109.95 444.72,-115.95 438.72,-121.95 432.72,-121.95 432.72,-121.95 356.72,-121.95 356.72,-121.95 350.72,-121.95 344.72,-115.95 344.72,-109.95 344.72,-109.95 344.72,-20 344.72,-20 344.72,-14 350.72,-8 356.72,-8"/>
<text text-anchor="middle" x="426.22" y="-15.8" font-family="Times,serif" font-size="14.00">919</text>
</g>
<!-- b -->
<g id="node1" class="node">
<title>b</title>
<ellipse fill="none" stroke="black" cx="41.72" cy="-198.43" rx="41.94" ry="37.45"/>
<text text-anchor="middle" x="41.72" y="-209.73" font-family="Times,serif" font-size="14.00">b</text>
<text text-anchor="middle" x="41.72" y="-194.73" font-family="Times,serif" font-size="14.00">~</text>
<text text-anchor="middle" x="41.72" y="-179.73" font-family="Times,serif" font-size="14.00">Normal</text>
</g>
<!-- y -->
<g id="node8" class="node">
<title>y</title>
<ellipse fill="lightgrey" stroke="black" cx="394.72" cy="-76.48" rx="41.94" ry="37.45"/>
<text text-anchor="middle" x="394.72" y="-87.78" font-family="Times,serif" font-size="14.00">y</text>
<text text-anchor="middle" x="394.72" y="-72.78" font-family="Times,serif" font-size="14.00">~</text>
<text text-anchor="middle" x="394.72" y="-57.78" font-family="Times,serif" font-size="14.00">Normal</text>
</g>
<!-- b&#45;&gt;y -->
<g id="edge1" class="edge">
<title>b&#45;&gt;y</title>
<path fill="none" stroke="black" d="M59.09,-164.13C67.32,-151.51 78.31,-138.21 91.72,-129.95 132.9,-104.57 267.62,-88.83 342.81,-81.8"/>
<polygon fill="black" stroke="black" points="343.37,-85.26 353.01,-80.86 342.73,-78.29 343.37,-85.26"/>
</g>
<!-- a -->
<g id="node2" class="node">
<title>a</title>
<ellipse fill="none" stroke="black" cx="142.72" cy="-198.43" rx="41.94" ry="37.45"/>
<text text-anchor="middle" x="142.72" y="-209.73" font-family="Times,serif" font-size="14.00">a</text>
<text text-anchor="middle" x="142.72" y="-194.73" font-family="Times,serif" font-size="14.00">~</text>
<text text-anchor="middle" x="142.72" y="-179.73" font-family="Times,serif" font-size="14.00">Normal</text>
</g>
<!-- a&#45;&gt;y -->
<g id="edge3" class="edge">
<title>a&#45;&gt;y</title>
<path fill="none" stroke="black" d="M160.93,-164.69C169.4,-152.16 180.54,-138.77 193.72,-129.95 238.68,-99.88 299.95,-87.04 342.98,-81.55"/>
<polygon fill="black" stroke="black" points="343.45,-85.02 352.96,-80.37 342.62,-78.07 343.45,-85.02"/>
</g>
<!-- sigma_b -->
<g id="node3" class="node">
<title>sigma_b</title>
<ellipse fill="none" stroke="black" cx="260.72" cy="-198.43" rx="57.97" ry="37.45"/>
<text text-anchor="middle" x="260.72" y="-209.73" font-family="Times,serif" font-size="14.00">sigma_b</text>
<text text-anchor="middle" x="260.72" y="-194.73" font-family="Times,serif" font-size="14.00">~</text>
<text text-anchor="middle" x="260.72" y="-179.73" font-family="Times,serif" font-size="14.00">Exponential</text>
</g>
<!-- sigma_b&#45;&gt;y -->
<g id="edge5" class="edge">
<title>sigma_b&#45;&gt;y</title>
<path fill="none" stroke="black" d="M290.29,-166.04C301.68,-154.38 315.01,-141.25 327.72,-129.95 336.35,-122.28 345.95,-114.41 355.12,-107.17"/>
<polygon fill="black" stroke="black" points="357.31,-109.9 363.04,-100.99 353.01,-104.38 357.31,-109.9"/>
</g>
<!-- sigma -->
<g id="node4" class="node">
<title>sigma</title>
<ellipse fill="none" stroke="black" cx="394.72" cy="-198.43" rx="57.97" ry="37.45"/>
<text text-anchor="middle" x="394.72" y="-209.73" font-family="Times,serif" font-size="14.00">sigma</text>
<text text-anchor="middle" x="394.72" y="-194.73" font-family="Times,serif" font-size="14.00">~</text>
<text text-anchor="middle" x="394.72" y="-179.73" font-family="Times,serif" font-size="14.00">Exponential</text>
</g>
<!-- sigma&#45;&gt;y -->
<g id="edge7" class="edge">
<title>sigma&#45;&gt;y</title>
<path fill="none" stroke="black" d="M394.72,-160.79C394.72,-149.38 394.72,-136.65 394.72,-124.63"/>
<polygon fill="black" stroke="black" points="398.22,-124.31 394.72,-114.31 391.22,-124.31 398.22,-124.31"/>
</g>
<!-- sigma_a -->
<g id="node5" class="node">
<title>sigma_a</title>
<ellipse fill="none" stroke="black" cx="528.72" cy="-198.43" rx="57.97" ry="37.45"/>
<text text-anchor="middle" x="528.72" y="-209.73" font-family="Times,serif" font-size="14.00">sigma_a</text>
<text text-anchor="middle" x="528.72" y="-194.73" font-family="Times,serif" font-size="14.00">~</text>
<text text-anchor="middle" x="528.72" y="-179.73" font-family="Times,serif" font-size="14.00">Exponential</text>
</g>
<!-- sigma_a&#45;&gt;y -->
<g id="edge6" class="edge">
<title>sigma_a&#45;&gt;y</title>
<path fill="none" stroke="black" d="M499.15,-166.04C487.76,-154.38 474.43,-141.25 461.72,-129.95 453.09,-122.28 443.49,-114.41 434.32,-107.17"/>
<polygon fill="black" stroke="black" points="436.43,-104.38 426.4,-100.99 432.13,-109.9 436.43,-104.38"/>
</g>
<!-- zb_mouse -->
<g id="node6" class="node">
<title>zb_mouse</title>
<ellipse fill="none" stroke="black" cx="773.72" cy="-198.43" rx="50.82" ry="37.45"/>
<text text-anchor="middle" x="773.72" y="-209.73" font-family="Times,serif" font-size="14.00">zb_mouse</text>
<text text-anchor="middle" x="773.72" y="-194.73" font-family="Times,serif" font-size="14.00">~</text>
<text text-anchor="middle" x="773.72" y="-179.73" font-family="Times,serif" font-size="14.00">Normal</text>
</g>
<!-- zb_mouse&#45;&gt;y -->
<g id="edge4" class="edge">
<title>zb_mouse&#45;&gt;y</title>
<path fill="none" stroke="black" d="M751.89,-164.39C741.78,-151.65 728.69,-138.2 713.72,-129.95 668.67,-105.14 524.63,-88.96 446.42,-81.77"/>
<polygon fill="black" stroke="black" points="446.58,-78.27 436.3,-80.85 445.95,-85.24 446.58,-78.27"/>
</g>
<!-- za_mouse -->
<g id="node7" class="node">
<title>za_mouse</title>
<ellipse fill="none" stroke="black" cx="654.72" cy="-198.43" rx="50.41" ry="37.45"/>
<text text-anchor="middle" x="654.72" y="-209.73" font-family="Times,serif" font-size="14.00">za_mouse</text>
<text text-anchor="middle" x="654.72" y="-194.73" font-family="Times,serif" font-size="14.00">~</text>
<text text-anchor="middle" x="654.72" y="-179.73" font-family="Times,serif" font-size="14.00">Normal</text>
</g>
<!-- za_mouse&#45;&gt;y -->
<g id="edge2" class="edge">
<title>za_mouse&#45;&gt;y</title>
<path fill="none" stroke="black" d="M632.69,-164.71C622.75,-152.18 610.01,-138.79 595.72,-129.95 549.95,-101.65 489.26,-88.51 446.59,-82.48"/>
<polygon fill="black" stroke="black" points="446.79,-78.98 436.41,-81.13 445.87,-85.91 446.79,-78.98"/>
</g>
</g>
</svg>
