<?xml version="1.0" encoding="UTF-8" standalone="no"?>
<!DOCTYPE svg PUBLIC "-//W3C//DTD SVG 1.1//EN"
 "http://www.w3.org/Graphics/SVG/1.1/DTD/svg11.dtd">
<!-- Generated by graphviz version 2.42.3 (20191010.1750)
 -->
<!-- Title: %3 Pages: 1 -->
<svg width="462pt" height="355pt"
 viewBox="0.00 0.00 461.70 354.86" xmlns="http://www.w3.org/2000/svg" xmlns:xlink="http://www.w3.org/1999/xlink">
<g id="graph0" class="graph" transform="scale(1 1) rotate(0) translate(4 350.86)">
<title>%3</title>
<polygon fill="white" stroke="transparent" points="-4,4 -4,-350.86 457.7,-350.86 457.7,4 -4,4"/>
<g id="clust1" class="cluster">
<title>cluster85</title>
<path fill="none" stroke="black" d="M119.72,-129.95C119.72,-129.95 315.72,-129.95 315.72,-129.95 321.72,-129.95 327.72,-135.95 327.72,-141.95 327.72,-141.95 327.72,-231.91 327.72,-231.91 327.72,-237.91 321.72,-243.91 315.72,-243.91 315.72,-243.91 119.72,-243.91 119.72,-243.91 113.72,-243.91 107.72,-237.91 107.72,-231.91 107.72,-231.91 107.72,-141.95 107.72,-141.95 107.72,-135.95 113.72,-129.95 119.72,-129.95"/>
<text text-anchor="middle" x="312.72" y="-137.75" font-family="Times,serif" font-size="14.00">85</text>
</g>
<g id="clust2" class="cluster">
<title>cluster919</title>
<path fill="none" stroke="black" d="M235.72,-8C235.72,-8 311.72,-8 311.72,-8 317.72,-8 323.72,-14 323.72,-20 323.72,-20 323.72,-109.95 323.72,-109.95 323.72,-115.95 317.72,-121.95 311.72,-121.95 311.72,-121.95 235.72,-121.95 235.72,-121.95 229.72,-121.95 223.72,-115.95 223.72,-109.95 223.72,-109.95 223.72,-20 223.72,-20 223.72,-14 229.72,-8 235.72,-8"/>
<text text-anchor="middle" x="305.22" y="-15.8" font-family="Times,serif" font-size="14.00">919</text>
</g>
<!-- b -->
<g id="node1" class="node">
<title>b</title>
<ellipse fill="none" stroke="black" cx="41.72" cy="-309.38" rx="41.94" ry="37.45"/>
<text text-anchor="middle" x="41.72" y="-320.68" font-family="Times,serif" font-size="14.00">b</text>
<text text-anchor="middle" x="41.72" y="-305.68" font-family="Times,serif" font-size="14.00">~</text>
<text text-anchor="middle" x="41.72" y="-290.68" font-family="Times,serif" font-size="14.00">Normal</text>
</g>
<!-- b_mouse -->
<g id="node6" class="node">
<title>b_mouse</title>
<ellipse fill="none" stroke="black" cx="162.72" cy="-198.43" rx="46.84" ry="37.45"/>
<text text-anchor="middle" x="162.72" y="-209.73" font-family="Times,serif" font-size="14.00">b_mouse</text>
<text text-anchor="middle" x="162.72" y="-194.73" font-family="Times,serif" font-size="14.00">~</text>
<text text-anchor="middle" x="162.72" y="-179.73" font-family="Times,serif" font-size="14.00">Normal</text>
</g>
<!-- b&#45;&gt;b_mouse -->
<g id="edge4" class="edge">
<title>b&#45;&gt;b_mouse</title>
<path fill="none" stroke="black" d="M70.7,-282.29C86.71,-267.87 106.8,-249.78 124.12,-234.19"/>
<polygon fill="black" stroke="black" points="126.77,-236.51 131.86,-227.22 122.08,-231.31 126.77,-236.51"/>
</g>
<!-- a -->
<g id="node2" class="node">
<title>a</title>
<ellipse fill="none" stroke="black" cx="277.72" cy="-309.38" rx="41.94" ry="37.45"/>
<text text-anchor="middle" x="277.72" y="-320.68" font-family="Times,serif" font-size="14.00">a</text>
<text text-anchor="middle" x="277.72" y="-305.68" font-family="Times,serif" font-size="14.00">~</text>
<text text-anchor="middle" x="277.72" y="-290.68" font-family="Times,serif" font-size="14.00">Normal</text>
</g>
<!-- a_mouse -->
<g id="node7" class="node">
<title>a_mouse</title>
<ellipse fill="none" stroke="black" cx="273.72" cy="-198.43" rx="45.92" ry="37.45"/>
<text text-anchor="middle" x="273.72" y="-209.73" font-family="Times,serif" font-size="14.00">a_mouse</text>
<text text-anchor="middle" x="273.72" y="-194.73" font-family="Times,serif" font-size="14.00">~</text>
<text text-anchor="middle" x="273.72" y="-179.73" font-family="Times,serif" font-size="14.00">Normal</text>
</g>
<!-- a&#45;&gt;a_mouse -->
<g id="edge1" class="edge">
<title>a&#45;&gt;a_mouse</title>
<path fill="none" stroke="black" d="M276.38,-271.8C276.08,-263.63 275.75,-254.85 275.44,-246.32"/>
<polygon fill="black" stroke="black" points="278.93,-245.97 275.07,-236.1 271.93,-246.22 278.93,-245.97"/>
</g>
<!-- sigma_b -->
<g id="node3" class="node">
<title>sigma_b</title>
<ellipse fill="none" stroke="black" cx="159.72" cy="-309.38" rx="57.97" ry="37.45"/>
<text text-anchor="middle" x="159.72" y="-320.68" font-family="Times,serif" font-size="14.00">sigma_b</text>
<text text-anchor="middle" x="159.72" y="-305.68" font-family="Times,serif" font-size="14.00">~</text>
<text text-anchor="middle" x="159.72" y="-290.68" font-family="Times,serif" font-size="14.00">Exponential</text>
</g>
<!-- sigma_b&#45;&gt;b_mouse -->
<g id="edge3" class="edge">
<title>sigma_b&#45;&gt;b_mouse</title>
<path fill="none" stroke="black" d="M160.73,-271.8C160.95,-263.63 161.19,-254.85 161.43,-246.32"/>
<polygon fill="black" stroke="black" points="164.93,-246.19 161.71,-236.1 157.94,-246 164.93,-246.19"/>
</g>
<!-- sigma -->
<g id="node4" class="node">
<title>sigma</title>
<ellipse fill="none" stroke="black" cx="395.72" cy="-198.43" rx="57.97" ry="37.45"/>
<text text-anchor="middle" x="395.72" y="-209.73" font-family="Times,serif" font-size="14.00">sigma</text>
<text text-anchor="middle" x="395.72" y="-194.73" font-family="Times,serif" font-size="14.00">~</text>
<text text-anchor="middle" x="395.72" y="-179.73" font-family="Times,serif" font-size="14.00">Exponential</text>
</g>
<!-- y -->
<g id="node8" class="node">
<title>y</title>
<ellipse fill="lightgrey" stroke="black" cx="273.72" cy="-76.48" rx="41.94" ry="37.45"/>
<text text-anchor="middle" x="273.72" y="-87.78" font-family="Times,serif" font-size="14.00">y</text>
<text text-anchor="middle" x="273.72" y="-72.78" font-family="Times,serif" font-size="14.00">~</text>
<text text-anchor="middle" x="273.72" y="-57.78" font-family="Times,serif" font-size="14.00">Normal</text>
</g>
<!-- sigma&#45;&gt;y -->
<g id="edge7" class="edge">
<title>sigma&#45;&gt;y</title>
<path fill="none" stroke="black" d="M366.57,-165.71C355.81,-154.25 343.39,-141.35 331.72,-129.95 325.01,-123.4 317.71,-116.57 310.61,-110.08"/>
<polygon fill="black" stroke="black" points="312.79,-107.33 303.03,-103.21 308.09,-112.52 312.79,-107.33"/>
</g>
<!-- sigma_a -->
<g id="node5" class="node">
<title>sigma_a</title>
<ellipse fill="none" stroke="black" cx="395.72" cy="-309.38" rx="57.97" ry="37.45"/>
<text text-anchor="middle" x="395.72" y="-320.68" font-family="Times,serif" font-size="14.00">sigma_a</text>
<text text-anchor="middle" x="395.72" y="-305.68" font-family="Times,serif" font-size="14.00">~</text>
<text text-anchor="middle" x="395.72" y="-290.68" font-family="Times,serif" font-size="14.00">Exponential</text>
</g>
<!-- sigma_a&#45;&gt;a_mouse -->
<g id="edge2" class="edge">
<title>sigma_a&#45;&gt;a_mouse</title>
<path fill="none" stroke="black" d="M362.38,-278.61C346.86,-264.75 328.31,-248.18 312.2,-233.79"/>
<polygon fill="black" stroke="black" points="314.3,-230.97 304.51,-226.92 309.63,-236.2 314.3,-230.97"/>
</g>
<!-- b_mouse&#45;&gt;y -->
<g id="edge5" class="edge">
<title>b_mouse&#45;&gt;y</title>
<path fill="none" stroke="black" d="M187.36,-166.22C196.87,-154.58 208.02,-141.42 218.72,-129.95 224.61,-123.64 231.08,-117.13 237.45,-110.93"/>
<polygon fill="black" stroke="black" points="240.05,-113.28 244.84,-103.83 235.2,-108.24 240.05,-113.28"/>
</g>
<!-- a_mouse&#45;&gt;y -->
<g id="edge6" class="edge">
<title>a_mouse&#45;&gt;y</title>
<path fill="none" stroke="black" d="M273.72,-160.79C273.72,-149.38 273.72,-136.65 273.72,-124.63"/>
<polygon fill="black" stroke="black" points="277.22,-124.31 273.72,-114.31 270.22,-124.31 277.22,-124.31"/>
</g>
</g>
</svg>
