<?xml version="1.0" encoding="UTF-8" standalone="no"?>
<!DOCTYPE svg PUBLIC "-//W3C//DTD SVG 1.1//EN"
 "http://www.w3.org/Graphics/SVG/1.1/DTD/svg11.dtd">
<!-- Generated by graphviz version 2.38.0 (20140413.2041)
 -->
<!-- Title: %3 Pages: 1 -->
<svg width="530pt" height="238pt"
 viewBox="0.00 0.00 530.14 238.00" xmlns="http://www.w3.org/2000/svg" xmlns:xlink="http://www.w3.org/1999/xlink">
<g id="graph0" class="graph" transform="scale(1 1) rotate(0) translate(4 234)">
<title>%3</title>
<polygon fill="white" stroke="none" points="-4,4 -4,-234 526.138,-234 526.138,4 -4,4"/>
<g id="clust1" class="cluster"><title>cluster85</title>
<path fill="none" stroke="black" d="M57.9954,-91C57.9954,-91 207.995,-91 207.995,-91 213.995,-91 219.995,-97 219.995,-103 219.995,-103 219.995,-154 219.995,-154 219.995,-160 213.995,-166 207.995,-166 207.995,-166 57.9954,-166 57.9954,-166 51.9954,-166 45.9954,-160 45.9954,-154 45.9954,-154 45.9954,-103 45.9954,-103 45.9954,-97 51.9954,-91 57.9954,-91"/>
<text text-anchor="middle" x="204.995" y="-98.8" font-family="Times,serif" font-size="14.00">85</text>
</g>
<g id="clust2" class="cluster"><title>cluster919</title>
<path fill="none" stroke="black" d="M233.995,-8C233.995,-8 329.995,-8 329.995,-8 335.995,-8 341.995,-14 341.995,-20 341.995,-20 341.995,-71 341.995,-71 341.995,-77 335.995,-83 329.995,-83 329.995,-83 233.995,-83 233.995,-83 227.995,-83 221.995,-77 221.995,-71 221.995,-71 221.995,-20 221.995,-20 221.995,-14 227.995,-8 233.995,-8"/>
<text text-anchor="middle" x="323.495" y="-15.8" font-family="Times,serif" font-size="14.00">919</text>
</g>
<!-- a -->
<g id="node1" class="node"><title>a</title>
<ellipse fill="none" stroke="black" cx="51.9954" cy="-212" rx="51.9908" ry="18"/>
<text text-anchor="middle" x="51.9954" y="-208.3" font-family="Times,serif" font-size="14.00">a ~ Normal</text>
</g>
<!-- a_mouse -->
<g id="node5" class="node"><title>a_mouse</title>
<ellipse fill="none" stroke="black" cx="132.995" cy="-140" rx="79.0865" ry="18"/>
<text text-anchor="middle" x="132.995" y="-136.3" font-family="Times,serif" font-size="14.00">a_mouse ~ Normal</text>
</g>
<!-- a&#45;&gt;a_mouse -->
<g id="edge2" class="edge"><title>a&#45;&gt;a_mouse</title>
<path fill="none" stroke="black" d="M70.3755,-195.116C80.9186,-186.005 94.3466,-174.4 106.062,-164.276"/>
<polygon fill="black" stroke="black" points="108.565,-166.738 113.843,-157.552 103.988,-161.442 108.565,-166.738"/>
</g>
<!-- b -->
<g id="node2" class="node"><title>b</title>
<ellipse fill="none" stroke="black" cx="281.995" cy="-140" rx="51.9908" ry="18"/>
<text text-anchor="middle" x="281.995" y="-136.3" font-family="Times,serif" font-size="14.00">b ~ Normal</text>
</g>
<!-- y -->
<g id="node6" class="node"><title>y</title>
<ellipse fill="lightgrey" stroke="black" cx="281.995" cy="-57" rx="51.9908" ry="18"/>
<text text-anchor="middle" x="281.995" y="-53.3" font-family="Times,serif" font-size="14.00">y ~ Normal</text>
</g>
<!-- b&#45;&gt;y -->
<g id="edge4" class="edge"><title>b&#45;&gt;y</title>
<path fill="none" stroke="black" d="M281.995,-121.822C281.995,-111.19 281.995,-97.306 281.995,-85.2035"/>
<polygon fill="black" stroke="black" points="285.495,-85.1532 281.995,-75.1533 278.495,-85.1533 285.495,-85.1532"/>
</g>
<!-- sigma_a -->
<g id="node3" class="node"><title>sigma_a</title>
<ellipse fill="none" stroke="black" cx="214.995" cy="-212" rx="92.8835" ry="18"/>
<text text-anchor="middle" x="214.995" y="-208.3" font-family="Times,serif" font-size="14.00">sigma_a ~ Exponential</text>
</g>
<!-- sigma_a&#45;&gt;a_mouse -->
<g id="edge1" class="edge"><title>sigma_a&#45;&gt;a_mouse</title>
<path fill="none" stroke="black" d="M195.145,-194.055C184.593,-185.047 171.467,-173.842 160.001,-164.053"/>
<polygon fill="black" stroke="black" points="162.258,-161.378 152.38,-157.547 157.713,-166.702 162.258,-161.378"/>
</g>
<!-- sigma -->
<g id="node4" class="node"><title>sigma</title>
<ellipse fill="none" stroke="black" cx="436.995" cy="-140" rx="85.2851" ry="18"/>
<text text-anchor="middle" x="436.995" y="-136.3" font-family="Times,serif" font-size="14.00">sigma ~ Exponential</text>
</g>
<!-- sigma&#45;&gt;y -->
<g id="edge5" class="edge"><title>sigma&#45;&gt;y</title>
<path fill="none" stroke="black" d="M406.372,-122.997C381.118,-109.799 345.225,-91.0426 318.483,-77.0679"/>
<polygon fill="black" stroke="black" points="319.922,-73.8708 309.439,-72.3413 316.68,-80.0748 319.922,-73.8708"/>
</g>
<!-- a_mouse&#45;&gt;y -->
<g id="edge3" class="edge"><title>a_mouse&#45;&gt;y</title>
<path fill="none" stroke="black" d="M161.915,-123.193C179.078,-113.82 201.269,-101.716 220.995,-91 229.067,-86.6153 237.745,-81.9134 245.951,-77.4726"/>
<polygon fill="black" stroke="black" points="247.828,-80.4368 254.959,-72.6006 244.498,-74.2797 247.828,-80.4368"/>
</g>
</g>
</svg>
