<?xml version="1.0" encoding="UTF-8" standalone="no"?>
<!DOCTYPE svg PUBLIC "-//W3C//DTD SVG 1.1//EN"
 "http://www.w3.org/Graphics/SVG/1.1/DTD/svg11.dtd">
<!-- Generated by graphviz version 2.38.0 (20140413.2041)
 -->
<!-- Title: %3 Pages: 1 -->
<svg width="1218pt" height="182pt"
 viewBox="0.00 0.00 1218.00 182.00" xmlns="http://www.w3.org/2000/svg" xmlns:xlink="http://www.w3.org/1999/xlink">
<g id="graph0" class="graph" transform="scale(1 1) rotate(0) translate(4 178)">
<title>%3</title>
<polygon fill="white" stroke="none" points="-4,4 -4,-178 1214,-178 1214,4 -4,4"/>
<g id="clust1" class="cluster"><title>cluster85</title>
<path fill="none" stroke="black" d="M845.995,-91C845.995,-91 1190,-91 1190,-91 1196,-91 1202,-97 1202,-103 1202,-103 1202,-154 1202,-154 1202,-160 1196,-166 1190,-166 1190,-166 845.995,-166 845.995,-166 839.995,-166 833.995,-160 833.995,-154 833.995,-154 833.995,-103 833.995,-103 833.995,-97 839.995,-91 845.995,-91"/>
<text text-anchor="middle" x="1187" y="-98.8" font-family="Times,serif" font-size="14.00">85</text>
</g>
<g id="clust2" class="cluster"><title>cluster919</title>
<path fill="none" stroke="black" d="M535.995,-8C535.995,-8 631.995,-8 631.995,-8 637.995,-8 643.995,-14 643.995,-20 643.995,-20 643.995,-71 643.995,-71 643.995,-77 637.995,-83 631.995,-83 631.995,-83 535.995,-83 535.995,-83 529.995,-83 523.995,-77 523.995,-71 523.995,-71 523.995,-20 523.995,-20 523.995,-14 529.995,-8 535.995,-8"/>
<text text-anchor="middle" x="625.495" y="-15.8" font-family="Times,serif" font-size="14.00">919</text>
</g>
<!-- a -->
<g id="node1" class="node"><title>a</title>
<ellipse fill="none" stroke="black" cx="51.9954" cy="-140" rx="51.9908" ry="18"/>
<text text-anchor="middle" x="51.9954" y="-136.3" font-family="Times,serif" font-size="14.00">a ~ Normal</text>
</g>
<!-- y -->
<g id="node8" class="node"><title>y</title>
<ellipse fill="lightgrey" stroke="black" cx="583.995" cy="-57" rx="51.9908" ry="18"/>
<text text-anchor="middle" x="583.995" y="-53.3" font-family="Times,serif" font-size="14.00">y ~ Normal</text>
</g>
<!-- a&#45;&gt;y -->
<g id="edge1" class="edge"><title>a&#45;&gt;y</title>
<path fill="none" stroke="black" d="M67.3773,-122.549C78.8012,-111.511 95.3945,-97.7928 112.995,-91 185.856,-62.8806 411.205,-58.3386 521.667,-57.8541"/>
<polygon fill="black" stroke="black" points="521.681,-61.3542 531.669,-57.82 521.657,-54.3542 521.681,-61.3542"/>
</g>
<!-- sigma_a -->
<g id="node2" class="node"><title>sigma_a</title>
<ellipse fill="none" stroke="black" cx="214.995" cy="-140" rx="92.8835" ry="18"/>
<text text-anchor="middle" x="214.995" y="-136.3" font-family="Times,serif" font-size="14.00">sigma_a ~ Exponential</text>
</g>
<!-- sigma_a&#45;&gt;y -->
<g id="edge2" class="edge"><title>sigma_a&#45;&gt;y</title>
<path fill="none" stroke="black" d="M243.061,-122.82C263.036,-112.057 290.862,-98.5547 316.995,-91 385.494,-71.1985 467.245,-63.2784 522.084,-60.1107"/>
<polygon fill="black" stroke="black" points="522.545,-63.591 532.341,-59.5556 522.166,-56.6013 522.545,-63.591"/>
</g>
<!-- sigma_b -->
<g id="node3" class="node"><title>sigma_b</title>
<ellipse fill="none" stroke="black" cx="419.995" cy="-140" rx="93.6835" ry="18"/>
<text text-anchor="middle" x="419.995" y="-136.3" font-family="Times,serif" font-size="14.00">sigma_b ~ Exponential</text>
</g>
<!-- sigma_b&#45;&gt;y -->
<g id="edge3" class="edge"><title>sigma_b&#45;&gt;y</title>
<path fill="none" stroke="black" d="M452.397,-122.997C479.402,-109.659 517.904,-90.6426 546.289,-76.6233"/>
<polygon fill="black" stroke="black" points="548.08,-79.6424 555.496,-72.0759 544.98,-73.3662 548.08,-79.6424"/>
</g>
<!-- b -->
<g id="node4" class="node"><title>b</title>
<ellipse fill="none" stroke="black" cx="583.995" cy="-140" rx="51.9908" ry="18"/>
<text text-anchor="middle" x="583.995" y="-136.3" font-family="Times,serif" font-size="14.00">b ~ Normal</text>
</g>
<!-- b&#45;&gt;y -->
<g id="edge4" class="edge"><title>b&#45;&gt;y</title>
<path fill="none" stroke="black" d="M583.995,-121.822C583.995,-111.19 583.995,-97.306 583.995,-85.2035"/>
<polygon fill="black" stroke="black" points="587.495,-85.1532 583.995,-75.1533 580.495,-85.1533 587.495,-85.1532"/>
</g>
<!-- sigma -->
<g id="node5" class="node"><title>sigma</title>
<ellipse fill="none" stroke="black" cx="738.995" cy="-140" rx="85.2851" ry="18"/>
<text text-anchor="middle" x="738.995" y="-136.3" font-family="Times,serif" font-size="14.00">sigma ~ Exponential</text>
</g>
<!-- sigma&#45;&gt;y -->
<g id="edge6" class="edge"><title>sigma&#45;&gt;y</title>
<path fill="none" stroke="black" d="M708.372,-122.997C683.118,-109.799 647.225,-91.0426 620.483,-77.0679"/>
<polygon fill="black" stroke="black" points="621.922,-73.8708 611.439,-72.3413 618.68,-80.0748 621.922,-73.8708"/>
</g>
<!-- za_mouse -->
<g id="node6" class="node"><title>za_mouse</title>
<ellipse fill="none" stroke="black" cx="1111" cy="-140" rx="83.3857" ry="18"/>
<text text-anchor="middle" x="1111" y="-136.3" font-family="Times,serif" font-size="14.00">za_mouse ~ Normal</text>
</g>
<!-- za_mouse&#45;&gt;y -->
<g id="edge7" class="edge"><title>za_mouse&#45;&gt;y</title>
<path fill="none" stroke="black" d="M1086.38,-122.633C1068.49,-111.635 1043.25,-97.929 1019,-91 950.702,-71.4874 748.981,-62.853 646.002,-59.6309"/>
<polygon fill="black" stroke="black" points="645.853,-56.1248 635.751,-59.3178 645.64,-63.1215 645.853,-56.1248"/>
</g>
<!-- zb_mouse -->
<g id="node7" class="node"><title>zb_mouse</title>
<ellipse fill="none" stroke="black" cx="925.995" cy="-140" rx="83.6854" ry="18"/>
<text text-anchor="middle" x="925.995" y="-136.3" font-family="Times,serif" font-size="14.00">zb_mouse ~ Normal</text>
</g>
<!-- zb_mouse&#45;&gt;y -->
<g id="edge5" class="edge"><title>zb_mouse&#45;&gt;y</title>
<path fill="none" stroke="black" d="M900.575,-122.825C882.439,-112.064 857.092,-98.5628 832.995,-91 771.105,-71.5758 697.069,-63.583 645.897,-60.2952"/>
<polygon fill="black" stroke="black" points="645.85,-56.7862 635.658,-59.6805 645.43,-63.7736 645.85,-56.7862"/>
</g>
</g>
</svg>
