<?xml version="1.0" encoding="UTF-8" standalone="no"?>
<!DOCTYPE svg PUBLIC "-//W3C//DTD SVG 1.1//EN"
 "http://www.w3.org/Graphics/SVG/1.1/DTD/svg11.dtd">
<!-- Generated by graphviz version 2.38.0 (20140413.2041)
 -->
<!-- Title: %3 Pages: 1 -->
<svg width="631pt" height="337pt"
 viewBox="0.00 0.00 631.14 337.00" xmlns="http://www.w3.org/2000/svg" xmlns:xlink="http://www.w3.org/1999/xlink">
<g id="graph0" class="graph" transform="scale(1 1) rotate(0) translate(4 333)">
<title>%3</title>
<polygon fill="white" stroke="none" points="-4,4 -4,-333 627.142,-333 627.142,4 -4,4"/>
<g id="clust1" class="cluster"><title>cluster2</title>
<path fill="none" stroke="black" d="M209,-246C209,-246 305,-246 305,-246 311,-246 317,-252 317,-258 317,-258 317,-309 317,-309 317,-315 311,-321 305,-321 305,-321 209,-321 209,-321 203,-321 197,-315 197,-309 197,-309 197,-258 197,-258 197,-252 203,-246 209,-246"/>
<text text-anchor="middle" x="305.5" y="-253.8" font-family="Times,serif" font-size="14.00">2</text>
</g>
<g id="clust2" class="cluster"><title>cluster85</title>
<path fill="none" stroke="black" d="M20,-91C20,-91 310,-91 310,-91 316,-91 322,-97 322,-103 322,-103 322,-226 322,-226 322,-232 316,-238 310,-238 310,-238 20,-238 20,-238 14,-238 8,-232 8,-226 8,-226 8,-103 8,-103 8,-97 14,-91 20,-91"/>
<text text-anchor="middle" x="307" y="-98.8" font-family="Times,serif" font-size="14.00">85</text>
</g>
<g id="clust3" class="cluster"><title>cluster919</title>
<path fill="none" stroke="black" d="M335,-8C335,-8 431,-8 431,-8 437,-8 443,-14 443,-20 443,-20 443,-71 443,-71 443,-77 437,-83 431,-83 431,-83 335,-83 335,-83 329,-83 323,-77 323,-71 323,-71 323,-20 323,-20 323,-14 329,-8 335,-8"/>
<text text-anchor="middle" x="424.5" y="-15.8" font-family="Times,serif" font-size="14.00">919</text>
</g>
<!-- g -->
<g id="node1" class="node"><title>g</title>
<ellipse fill="none" stroke="black" cx="257" cy="-295" rx="51.9908" ry="18"/>
<text text-anchor="middle" x="257" y="-291.3" font-family="Times,serif" font-size="14.00">g ~ Normal</text>
</g>
<!-- a -->
<g id="node5" class="node"><title>a</title>
<polygon fill="none" stroke="black" points="314,-230 200,-230 200,-194 314,-194 314,-230"/>
<text text-anchor="middle" x="257" y="-208.3" font-family="Times,serif" font-size="14.00">a ~ Deterministic</text>
</g>
<!-- g&#45;&gt;a -->
<g id="edge1" class="edge"><title>g&#45;&gt;a</title>
<path fill="none" stroke="black" d="M257,-276.822C257,-266.19 257,-252.306 257,-240.204"/>
<polygon fill="black" stroke="black" points="260.5,-240.153 257,-230.153 253.5,-240.153 260.5,-240.153"/>
</g>
<!-- sigma_a -->
<g id="node2" class="node"><title>sigma_a</title>
<ellipse fill="none" stroke="black" cx="425" cy="-212" rx="92.8835" ry="18"/>
<text text-anchor="middle" x="425" y="-208.3" font-family="Times,serif" font-size="14.00">sigma_a ~ Exponential</text>
</g>
<!-- a_mouse -->
<g id="node7" class="node"><title>a_mouse</title>
<polygon fill="none" stroke="black" points="313.5,-158 156.5,-158 156.5,-122 313.5,-122 313.5,-158"/>
<text text-anchor="middle" x="235" y="-136.3" font-family="Times,serif" font-size="14.00">a_mouse ~ Deterministic</text>
</g>
<!-- sigma_a&#45;&gt;a_mouse -->
<g id="edge4" class="edge"><title>sigma_a&#45;&gt;a_mouse</title>
<path fill="none" stroke="black" d="M383.773,-195.811C356.493,-185.761 320.392,-172.46 290.585,-161.479"/>
<polygon fill="black" stroke="black" points="291.741,-158.174 281.147,-158.002 289.321,-164.743 291.741,-158.174"/>
</g>
<!-- b -->
<g id="node3" class="node"><title>b</title>
<ellipse fill="none" stroke="black" cx="383" cy="-140" rx="51.9908" ry="18"/>
<text text-anchor="middle" x="383" y="-136.3" font-family="Times,serif" font-size="14.00">b ~ Normal</text>
</g>
<!-- y -->
<g id="node8" class="node"><title>y</title>
<ellipse fill="lightgrey" stroke="black" cx="383" cy="-57" rx="51.9908" ry="18"/>
<text text-anchor="middle" x="383" y="-53.3" font-family="Times,serif" font-size="14.00">y ~ Normal</text>
</g>
<!-- b&#45;&gt;y -->
<g id="edge5" class="edge"><title>b&#45;&gt;y</title>
<path fill="none" stroke="black" d="M383,-121.822C383,-111.19 383,-97.306 383,-85.2035"/>
<polygon fill="black" stroke="black" points="386.5,-85.1532 383,-75.1533 379.5,-85.1533 386.5,-85.1532"/>
</g>
<!-- sigma -->
<g id="node4" class="node"><title>sigma</title>
<ellipse fill="none" stroke="black" cx="538" cy="-140" rx="85.2851" ry="18"/>
<text text-anchor="middle" x="538" y="-136.3" font-family="Times,serif" font-size="14.00">sigma ~ Exponential</text>
</g>
<!-- sigma&#45;&gt;y -->
<g id="edge7" class="edge"><title>sigma&#45;&gt;y</title>
<path fill="none" stroke="black" d="M507.377,-122.997C482.122,-109.799 446.23,-91.0426 419.488,-77.0679"/>
<polygon fill="black" stroke="black" points="420.927,-73.8708 410.443,-72.3413 417.685,-80.0748 420.927,-73.8708"/>
</g>
<!-- a&#45;&gt;a_mouse -->
<g id="edge2" class="edge"><title>a&#45;&gt;a_mouse</title>
<path fill="none" stroke="black" d="M251.562,-193.697C249.111,-185.898 246.16,-176.509 243.432,-167.829"/>
<polygon fill="black" stroke="black" points="246.713,-166.595 240.376,-158.104 240.035,-168.694 246.713,-166.595"/>
</g>
<!-- za_mouse -->
<g id="node6" class="node"><title>za_mouse</title>
<ellipse fill="none" stroke="black" cx="99" cy="-212" rx="83.3857" ry="18"/>
<text text-anchor="middle" x="99" y="-208.3" font-family="Times,serif" font-size="14.00">za_mouse ~ Normal</text>
</g>
<!-- za_mouse&#45;&gt;a_mouse -->
<g id="edge3" class="edge"><title>za_mouse&#45;&gt;a_mouse</title>
<path fill="none" stroke="black" d="M129.861,-195.116C148.482,-185.531 172.464,-173.188 192.82,-162.71"/>
<polygon fill="black" stroke="black" points="194.596,-165.733 201.886,-158.044 191.392,-159.509 194.596,-165.733"/>
</g>
<!-- a_mouse&#45;&gt;y -->
<g id="edge6" class="edge"><title>a_mouse&#45;&gt;y</title>
<path fill="none" stroke="black" d="M265.97,-121.832C282.568,-112.651 303.38,-101.173 322,-91 330.061,-86.5959 338.735,-81.8861 346.94,-77.4438"/>
<polygon fill="black" stroke="black" points="348.817,-80.4082 355.948,-72.5727 345.487,-74.2509 348.817,-80.4082"/>
</g>
</g>
</svg>
