<?xml version="1.0" encoding="UTF-8" standalone="no"?>
<!DOCTYPE svg PUBLIC "-//W3C//DTD SVG 1.1//EN"
 "http://www.w3.org/Graphics/SVG/1.1/DTD/svg11.dtd">
<!-- Generated by graphviz version 2.38.0 (20140413.2041)
 -->
<!-- Title: %3 Pages: 1 -->
<svg width="370pt" height="182pt"
 viewBox="0.00 0.00 370.14 182.00" xmlns="http://www.w3.org/2000/svg" xmlns:xlink="http://www.w3.org/1999/xlink">
<g id="graph0" class="graph" transform="scale(1 1) rotate(0) translate(4 178)">
<title>%3</title>
<polygon fill="white" stroke="none" points="-4,4 -4,-178 366.142,-178 366.142,4 -4,4"/>
<g id="clust1" class="cluster"><title>cluster85</title>
<path fill="none" stroke="black" d="M20,-91C20,-91 170,-91 170,-91 176,-91 182,-97 182,-103 182,-103 182,-154 182,-154 182,-160 176,-166 170,-166 170,-166 20,-166 20,-166 14,-166 8,-160 8,-154 8,-154 8,-103 8,-103 8,-97 14,-91 20,-91"/>
<text text-anchor="middle" x="167" y="-98.8" font-family="Times,serif" font-size="14.00">85</text>
</g>
<g id="clust2" class="cluster"><title>cluster919</title>
<path fill="none" stroke="black" d="M60,-8C60,-8 156,-8 156,-8 162,-8 168,-14 168,-20 168,-20 168,-71 168,-71 168,-77 162,-83 156,-83 156,-83 60,-83 60,-83 54,-83 48,-77 48,-71 48,-71 48,-20 48,-20 48,-14 54,-8 60,-8"/>
<text text-anchor="middle" x="149.5" y="-15.8" font-family="Times,serif" font-size="14.00">919</text>
</g>
<!-- a_mouse -->
<g id="node1" class="node"><title>a_mouse</title>
<ellipse fill="none" stroke="black" cx="95" cy="-140" rx="79.0865" ry="18"/>
<text text-anchor="middle" x="95" y="-136.3" font-family="Times,serif" font-size="14.00">a_mouse ~ Normal</text>
</g>
<!-- y -->
<g id="node3" class="node"><title>y</title>
<ellipse fill="lightgrey" stroke="black" cx="108" cy="-57" rx="51.9908" ry="18"/>
<text text-anchor="middle" x="108" y="-53.3" font-family="Times,serif" font-size="14.00">y ~ Normal</text>
</g>
<!-- a_mouse&#45;&gt;y -->
<g id="edge1" class="edge"><title>a_mouse&#45;&gt;y</title>
<path fill="none" stroke="black" d="M97.757,-121.822C99.4633,-111.19 101.692,-97.306 103.634,-85.2035"/>
<polygon fill="black" stroke="black" points="107.118,-85.5816 105.247,-75.1533 100.206,-84.4722 107.118,-85.5816"/>
</g>
<!-- sigma -->
<g id="node2" class="node"><title>sigma</title>
<ellipse fill="none" stroke="black" cx="277" cy="-140" rx="85.2851" ry="18"/>
<text text-anchor="middle" x="277" y="-136.3" font-family="Times,serif" font-size="14.00">sigma ~ Exponential</text>
</g>
<!-- sigma&#45;&gt;y -->
<g id="edge2" class="edge"><title>sigma&#45;&gt;y</title>
<path fill="none" stroke="black" d="M248.221,-123.015C230.475,-113.36 207.142,-101.026 186,-91 174.583,-85.5857 162.041,-80.0877 150.416,-75.1724"/>
<polygon fill="black" stroke="black" points="151.488,-71.8269 140.912,-71.1951 148.786,-78.2842 151.488,-71.8269"/>
</g>
</g>
</svg>
